<?xml version="1.0" encoding="utf-8"?>
<!-- Generator: Adobe Illustrator 16.0.0, SVG Export Plug-In . SVG Version: 6.00 Build 0)  -->
<!DOCTYPE svg PUBLIC "-//W3C//DTD SVG 1.1//EN" "http://www.w3.org/Graphics/SVG/1.1/DTD/svg11.dtd">
<svg version="1.1" id="Layer_1" xmlns="http://www.w3.org/2000/svg" xmlns:xlink="http://www.w3.org/1999/xlink" x="0px" y="0px"
	 width="1536px" height="1536px" viewBox="0 0 1536 1536" enable-background="new 0 0 1536 1536" xml:space="preserve">
<g>
	<g>
		<path fill="#71A7D4" d="M1406.143,1141.865c-0.283-4.752-0.73-9.484-1.224-14.246c-0.028-0.285-0.312-0.549-0.332-0.838
			c-0.522-3.258-0.707-6.541-1.519-9.766c-0.607-2.709-0.064-5.604-1.533-8.414c-1.367-2.838-1.282-6.299-1.885-9.52
			c-0.663-3.516-1.276-7.168-2.204-10.561c-0.991-3.99-2.459-7.689-3.62-11.436c-1.054-3.129-2.058-6.307-3.022-9.352
			c-1.987-5.568-4.045-11.102-5.93-16.656c-0.602-1.846-1.082-3.826-1.899-5.559c-1.639-3.375-3.488-6.648-5.168-10.004
			c-1.389-2.602-2.458-5.361-3.866-7.891c-2.129-3.879-4.55-7.588-6.813-11.49c-1.895-3.248-3.556-6.537-5.538-9.756
			c-2.763-4.293-5.785-8.541-8.718-12.834c-2.277-3.377-4.585-6.689-6.945-9.953c-2.215-3.082-4.956-5.699-6.454-9.029
			c-1.547-3.326-0.837-7.018,0.823-10.535c1.334-3.146,1.312-6.721,1.926-10.111c0.557-2.766,0.41-5.381,1.613-8.168
			c1.391-2.814,1.572-6.084,1.922-9.254c0.313-3.92,0.996-7.738,1.647-11.615c1.209-7.186,1.375-14.617,1.897-21.963
			c0.303-4.156,0.432-8.34,0.696-12.516c0.026-0.408,0.204-0.908,0.263-1.305c0.885-3.168,2.016-6.301,0.482-9.643
			c-0.689-1.609-1.417-4.051-0.575-5.188c1.328-2.039,0.808-3.889,0.864-5.869c0.121-3.543-0.453-6.955-0.837-10.457
			c-0.867-6.506-0.628-13.082-1.775-19.654c-1.037-5.299-0.703-10.887-1.826-16.393c-0.933-4.156-0.701-8.492-1.8-12.852
			c-0.922-3.734-0.481-7.75-1.883-11.621c-0.831-2.668-0.646-5.598-1.737-8.414c-1.689-4.541-2.364-9.531-3.688-14.295
			c-1.127-4.061-2.35-8.109-3.532-12.142c-1.16-4.162-2.437-8.42-3.484-12.629c-1.386-4.877-2.484-9.766-3.962-14.633
			c-0.797-2.91-2.093-5.758-3.232-8.639c-1.638-4.258-3.283-8.457-4.985-12.641c-1.255-2.822-2.667-5.569-3.842-8.432
			c-1.542-3.764-2.644-7.724-4.285-11.461c-1.543-3.409-3.475-6.557-5.159-9.875c-0.918-1.797-1.481-3.698-2.441-5.474
			c-1.938-3.482-3.921-6.92-5.87-10.42c-1.541-2.879-2.793-5.9-4.416-8.728c-2.808-4.864-5.688-9.61-8.612-14.404
			c-1.07-1.828-1.864-3.698-2.995-5.514c-1.591-2.648-3.247-5.291-4.944-7.894c-2.688-4.106-5.241-8.211-7.989-12.246
			c-3.724-5.443-7.31-10.84-11.206-16.109c-2.318-3.227-5.227-6.075-7.684-9.231c-2.766-3.576-5.353-7.372-8.126-11.011
			c-1.305-1.753-2.923-3.363-4.369-5.196c-2.408-3.182-4.516-6.571-6.997-9.668c-3.011-3.883-6.191-7.606-9.445-11.286
			c-4.084-4.622-8.084-9.302-12.521-13.624c-7.787-7.746-15.881-15.268-23.995-22.809c-4.838-4.486-9.786-8.732-14.729-13.08
			c-3.546-2.988-7.165-5.975-10.675-8.884c-4.645-3.649-9.259-7.126-13.717-10.801c-3.497-2.804-6.716-5.942-10.278-8.663
			c-5.903-4.586-11.785-8.994-17.829-13.423c-2.645-1.914-5.187-3.809-7.938-5.59c-4.577-3.034-8.9-6.275-13.674-8.761
			c-1.707-0.864-4.73-0.472-6.514,0.534c-1.812,1.017,0.193,3.055,0.959,4.201c2.667,4.264,5.791,8.279,8.795,12.483
			c3.38,4.851,6.701,9.702,9.922,14.704c2.152,3.439,4.049,7.109,5.978,10.715c1.435,2.621,2.96,5.28,4.431,7.896
			c1.848,3.5,3.948,6.965,5.887,10.468c2.046,3.871,4.035,7.746,6.103,11.633c2.047,3.799,4.349,7.538,6.197,11.456
			c1.584,3.161,2.861,6.528,4.378,9.743c1.406,2.963,3.248,5.802,4.594,8.855c2.394,5.18,4.746,10.447,6.961,15.707
			c0.73,1.769,1.237,3.58,1.856,5.375c0.944,2.724,1.919,5.5,2.865,8.27c0.53,1.709,1.168,3.445,1.691,5.202
			c1.412,4.4,3.004,8.749,4.381,13.217c0.879,3.479,1.481,7.063,2.419,10.549c0.835,2.935,2.079,5.754,2.831,8.746
			c0.919,3.487,1.31,7.108,2.129,10.656c0.988,4.107,2.35,8.126,3.198,12.247c0.825,3.34,1.252,6.764,1.774,10.198
			c0.278,1.346-0.058,3.087,0.703,4.106c2.393,3.295,1.653,7.332,2.563,10.966c1.27,4.727,1.003,9.845,1.921,14.875
			c1.275,7.424,1.9,15.047,1.878,22.587c-0.016,7.381,0.138,14.77-0.743,22.301c-1.564,11.625,0.455,23.604-2.066,35.314
			c-1.089,4.865-1.194,9.902-1.893,14.833c-0.089,1.826-0.115,3.611-0.594,5.391c-0.889,3.902-1.942,7.83-2.822,11.758
			c-0.737,3.109-1.198,6.227-1.857,9.281c-1.184,5.08-2.307,10.133-3.598,15.152c-0.737,3.133-1.411,6.281-2.385,9.318
			c-1.017,3.391-2.539,6.615-3.427,10.033c-0.839,2.854-4.087,4.354-6.458,2.676c-1.684-1.264-3.573-2.387-5.532-3.412
			c-2.17-1.312-4.534-2.299-6.74-3.664c-3.3-2.154-6.538-4.672-9.896-6.908c-4.337-2.889-8.793-5.5-12.994-8.348
			c-3.31-2.227-6.414-4.838-9.672-7.123c-5.615-3.83-11.231-7.494-16.807-11.238c-4.435-3.078-9.122-5.951-13.447-9.137
			c-4.866-3.473-9.585-7.129-14.397-10.74c-3.516-2.721-7.033-5.576-10.664-8.291c-4.207-3.096-8.65-6.041-12.918-9.109
			c-4.811-3.547-9.563-7.102-14.293-10.654c-4.665-3.512-9.354-7.154-14.066-10.648c-4.729-3.557-9.494-7.119-14.239-10.67
			c-5.761-4.236-11.585-8.488-17.269-12.836c-3.493-2.705-6.865-5.59-10.271-8.436c-4.406-3.774-8.757-7.63-13.121-11.384
			c-1.647-1.47-3.238-2.981-4.936-4.351c-4.043-3.133-8.185-6.186-12.248-9.322c-2.908-2.203-5.77-4.537-8.621-6.8
			c-5.215-4.25-10.496-8.39-15.653-12.736c-4.619-3.926-9.104-8.111-13.634-12.232c-1.138-1.017-2.027-2.431-3.246-3.357
			c-2.646-2.067-5.54-3.801-8.018-6.016c-4.036-3.439-7.812-7.209-11.727-10.813c-2.219-2.084-4.448-4.242-6.778-6.162
			c-3.254-2.667-6.708-5.085-9.931-7.857c-3.748-3.26-7.322-6.748-10.967-10.157c-4.62-4.229-9.334-8.471-13.857-12.751
			c-5.159-4.815-10.17-9.695-15.248-14.555c-7.935-7.622-15.951-15.16-23.793-22.848c-3.968-3.85-7.566-8.009-11.477-11.777
			c-5.714-5.543-11.652-10.866-17.393-16.274c-2.23-2.091-4.264-4.413-6.516-6.465c-1.913-1.698-4.177-3.026-5.926-4.884
			c-1.699-1.805-2.845-4.087-4.279-6.112c-0.393-0.521-1.053-0.903-1.596-1.264c-0.102-0.068-0.771,0.405-0.75,0.503
			c0.191,0.81,0.375,1.635,0.762,2.393c0.421,0.863,1.668,2.166,1.492,2.439c-1.706,2.113,0.445,2.888,1.311,4.065
			c2.624,3.62,5.349,7.185,8.056,10.74c0.854,1.109,1.773,2.193,2.547,3.355c1.474,2.287,2.713,4.779,4.297,7.038
			c3.804,5.299,7.761,10.476,11.58,15.765c3.748,5.259,7.403,10.633,11.187,15.915c2.197,2.997,4.407,6.014,6.686,9.014
			c2.896,3.964,5.877,7.877,8.863,12.428c0.553,0.668,1.227,1.371,1.757,2.084c3.585,4.736,7.095,9.517,10.628,14.321
			c4.343,5.732,8.507,11.505,12.967,17.158c3.693,4.814,7.757,9.315,11.533,14.039c2.832,3.554,5.33,7.433,8.135,11.007
			c3.869,4.908,7.91,9.608,11.714,14.496c2.617,3.29,4.96,6.77,7.533,10.053c2.335,3.069,4.837,6.037,7.209,9.023
			c3.499,4.433,6.828,8.964,10.403,13.357c2.354,2.81,4.925,5.299,7.384,8.04c1.553,1.692,3.165,3.344,4.521,5.096
			c3.17,4.033,6.12,8.27,9.353,12.225c3.593,4.414,7.438,8.699,11.2,12.979c3.978,4.637,7.997,9.225,11.975,13.793
			c3.676,4.273,7.252,8.57,10.997,12.758c6.502,7.185,13.017,14.408,19.736,21.431c5.352,5.641,11.009,11.029,16.467,16.557
			c1.162,1.268,2.379,2.477,3.238,3.947c0.317,0.604,0.796,2.398-1.216,2.053c-0.965-0.207-1.968-0.482-2.833-0.959
			c-2.513-1.336-4.907-2.885-7.342-4.367c-4.451-2.654-8.987-5.24-13.329-8.09c-4.128-2.684-8.02-5.611-12.081-8.4
			c-3.362-2.266-6.836-4.367-10.141-6.631c-2.394-1.641-4.572-3.574-6.915-5.219c-3.255-2.35-6.644-4.434-9.92-6.756
			c-2.642-1.812-5.201-3.814-7.882-5.71c-3.259-2.25-6.579-4.43-9.824-6.709c-3.72-2.674-7.296-5.453-11.028-8.033
			c-4.586-3.248-9.265-6.297-13.822-9.514c-2.674-1.871-5.117-3.984-7.696-5.916c-3.405-2.42-6.885-4.662-10.305-6.994
			c-2.902-1.99-5.827-4.01-8.673-6.039c-3.562-2.531-7.087-5.176-10.652-7.797c-3.254-2.473-6.425-5.052-9.642-7.575
			c-4.514-3.468-9.035-7.008-13.541-10.455c-3.206-2.443-6.43-4.816-9.598-7.265c-4.458-3.456-8.871-6.881-13.321-10.349
			c-3.261-2.513-6.535-4.979-9.812-7.441c-4.406-3.352-8.892-6.632-13.258-10.116c-3.803-2.994-7.416-6.269-11.22-9.376
			c-5.704-4.611-11.521-9.141-17.201-13.83c-4.355-3.602-8.532-7.421-12.94-10.978c-5.445-4.404-11.18-8.467-16.684-12.86
			c-3.833-3.088-7.454-6.579-11.161-9.885c-1.57-1.333-3.113-2.778-4.683-4.105c-3.146-2.708-6.398-5.297-9.51-8.069
			c-2.1-1.841-4.001-4.034-6.083-5.896c-4.451-4.002-8.998-7.903-13.445-11.91c-4.524-4.122-8.946-8.337-13.48-12.424
			c-0.392-0.373-1.476,0.021-2.212,0.042c0.313,0.586,0.601,1.228,1.003,1.753c0.478,0.685,1.483,1.171,1.611,1.889
			c0.502,3.394,0.894,6.69,3.512,9.452c1.862,1.97,2.939,4.684,4.465,6.928c1.834,2.724,3.825,5.254,5.655,7.946
			c2.341,3.327,6.986,9.975,6.986,9.975s5.719,6.391,8.373,9.701c4.098,5.184,8.016,10.491,12.072,15.653
			c1.978,2.545,4.243,4.793,6.211,7.375c2.512,3.324,4.703,6.916,7.324,10.14c3.126,3.827,6.68,7.317,9.801,11.135
			c4.304,5.241,8.316,10.629,12.521,15.931c2.898,3.691,5.964,7.26,8.917,10.947c4.531,5.713,8.987,11.526,13.524,17.222
			c3.231,4.007,6.431,8.078,9.907,11.847c3.798,4.034,7.51,8.047,10.803,12.504c3.646,4.863,7.951,9.215,11.871,13.836
			c2.681,3.129,5.088,6.393,7.739,9.459c3.026,3.422,6.257,6.594,9.279,9.947c1.626,1.777,2.997,3.797,4.538,5.691
			c2.695,3.201,5.281,6.404,8.062,9.449c1.861,2.059,4.054,3.822,5.861,5.898c4.436,4.998,8.694,10.242,13.187,15.178
			c4.034,4.506,8.298,8.744,12.44,13.156c4.721,5.061,9.264,10.211,14.053,15.146c6.8,7.174,13.564,14.314,20.595,21.184
			c18.31,18.045,36.748,36.004,55.08,53.99c5.037,4.904,10.115,9.764,15.183,14.533c3.149,2.98,6.7,5.51,9.652,8.646
			c4.859,5.105,10.448,9.307,15.621,13.918c4.113,3.793,8.159,7.375,12.621,10.707c4.321,3.217,8.314,7.002,12.347,10.471
			c1.067,1.023,1.811,2.465,2.88,3.459c2.694,2.217,5.542,4.354,8.193,6.486c2.437,2.037,4.753,4.105,7.25,6.041
			c2.811,1.992,5.739,3.797,8.577,5.867c2.691,2.088,5.303,4.279,7.954,6.512c1.03,0.846,1.827,1.969,2.695,2.986
			c-0.94,0.623-1.899,1.268-2.888,1.9c-0.328,0.27-0.827,0.455-1.164,0.736c-4.527,2.564-8.799,5.721-13.514,7.961
			c-7.144,3.502-14.604,6.42-21.914,9.615c-4.794,2.057-9.473,4.455-14.375,6.314c-4.371,1.662-8.826,2.867-13.307,4.199
			c-3.096,1.01-6.147,2.084-9.348,2.922c-3.269,0.863-6.669,1.541-10.01,2.346c-3.991,0.904-7.906,2.211-11.964,3.002
			c-2.893,0.516-5.79,0.545-8.745,1.67c-3.604,1.252-7.66,1.574-11.585,1.875c-4.516,0.309-8.954,0.51-13.46,1.635
			c-5.261,1.383-10.9,1.594-16.338,1.885c-6.44,0.496-12.9,0.625-19.305,0.625c-6.292,0-12.67-0.26-18.955-0.588
			c-7.624-0.303-15.331-0.367-22.874-1.232c-4.07-0.557-8.154-0.152-12.341-1.451c-5.007-1.609-10.646-1.193-15.953-2.088
			c-3.509-0.531-6.991-0.053-10.558-1.484c-3.528-1.418-7.697-1.322-11.54-2.047c-3.874-0.625-7.667-1.27-11.494-2.119
			c-4.21-0.967-8.362-2.059-12.591-3.107c-3.311-0.818-6.667-1.404-9.908-2.416c-4.422-1.406-8.688-3.109-13.062-4.666
			c-3.529-1.281-7.033-2.443-10.56-3.58c-4.221-1.348-8.468-2.867-12.664-4.139c-0.806-0.301-1.812,0.016-2.565-0.35
			c-4.156-1.627-8.241-3.312-12.372-4.943c-2.019-0.83-4.129-1.4-6.128-2.287c-3.046-1.275-5.992-2.922-9.035-4.221
			c-4.859-2.115-9.899-3.844-14.664-6.012c-4.098-1.951-7.977-4.359-11.945-6.43c-4.188-2.207-8.376-4.471-12.584-6.641
			c-3.618-1.979-7.223-3.812-10.829-5.842c-2.887-1.555-5.84-3.025-8.606-4.789c-4.248-2.678-8.304-5.498-12.504-8.189
			c-3.11-1.971-6.445-3.561-9.467-5.49c-3.881-2.572-7.5-5.43-11.302-8.066c-1.892-1.33-3.795-2.594-5.711-3.824
			c-0.31,0.168-0.634,0.311-0.984,0.396c-2.091,0.496-4.209,0.629-6.349,0.629c-0.801,0-1.548-0.229-2.21-0.596
			c1.972,2.854,3.897,5.734,5.874,8.609c1.486,2.312,2.969,4.492,4.525,6.607c1.769,2.516,3.604,5.023,5.453,7.467
			c2.249,2.9,4.645,5.689,6.805,8.576c3.076,4.111,5.885,8.451,9,12.506c2.632,3.391,5.59,6.439,8.308,9.738
			c3.858,4.674,7.561,9.535,11.526,14.305c2.944,3.371,6.071,6.787,9.331,9.996c7.585,7.525,15.388,14.811,22.942,22.344
			c8.642,8.469,17.255,17.021,27.099,24.154c4.188,3.025,7.786,7.043,11.819,10.332c4.044,3.297,8.234,6.488,12.397,9.721
			c3.423,2.518,6.761,5.254,10.277,7.811c3.009,2.186,6.222,4.275,9.344,6.422c2.894,2.059,5.646,4.256,8.598,6.107
			c4.243,2.936,8.636,5.664,13.007,8.359c2.673,1.77,5.295,3.75,8.034,5.418c3.289,1.883,6.674,3.725,9.996,5.607
			c2.396,1.264,4.815,2.584,7.223,3.824c2.731,1.445,5.434,2.918,8.188,4.402c4.625,2.516,9.287,4.904,13.877,7.412
			c3.366,1.75,6.679,3.707,10.091,5.318c5.676,2.719,11.387,5.148,17.097,7.689c1.863,0.752,3.813,1.342,5.661,2.143
			c1.686,0.752,3.279,1.83,5.002,2.639c3.898,1.604,7.782,3.016,11.701,4.52c3.627,1.393,7.196,2.961,10.887,4.326
			c4.501,1.535,9.047,2.719,13.571,4.248c6.501,2.09,12.984,4.291,19.497,6.432c4.18,1.246,8.409,2.654,12.672,3.385
			c4.776,0.754,9.303,2.16,13.873,3.594c4.788,1.527,9.768,2.738,14.755,3.555c2.996,0.516,5.971,0.91,9.023,1.66
			c4.552,1.271,9.48,1.307,14.3,1.965c4.069,0.598,8.141,0.332,12.229,1.549c4.537,1.41,9.523,1.645,14.337,1.965
			c7.588,0.363,15.217,0.514,22.849,0.588c12.575,0.113,25.241,0.025,37.813,0.025c0.667,0,1.372,0.064,2.102-0.004
			c6.36-0.531,12.72-1.201,19.054-1.793c2.877-0.16,5.798-0.143,8.614-0.668c4.456-0.766,8.892-1.98,13.271-2.762
			c4.121-0.871,8.319-1.357,12.427-2.215c4.413-0.934,8.934-2.051,13.352-3.227c5.285-1.238,10.534-2.578,15.749-4.006
			c3.145-0.891,6.196-1.99,9.416-3.033c2.931-0.965,5.892-1.717,8.901-2.805c4.226-1.545,8.562-3.283,12.904-4.975
			c3.118-1.141,6.276-2.363,9.302-3.697c2.15-0.955,3.924-2.279,5.983-3.311c1.827-0.889,3.741-1.312,5.532-2.234
			c3.721-1.979,7.115-4.072,10.807-6.1c4.171-2.209,8.377-4.361,12.517-6.576c3.156-1.59,6.216-3.17,9.361-4.537
			c2.896-1.346,6.026-2.418,9.051-3.656c3.812-1.592,7.649-3.262,11.572-4.715c2.658-1.029,5.611-1.625,8.342-2.379
			c3.808-1.014,7.389-2.264,11.206-2.795c3.062-0.574,5.966-1.068,9.047-1.697c5.572-1.338,11.425-1.93,17.105-1.879
			c6.635,0.064,13.222-0.49,20.001,0.768c6.722,1.273,13.371,2.088,19.898,4.135c1.168,0.389,2.391,0.312,3.525,0.68
			c2.244,0.959,4.501,2.115,6.723,3.1c3.024,1.438,6.307,2.26,9.227,3.889c3.368,1.992,6.534,4.5,9.784,6.777
			c3.568,2.566,7.383,4.777,10.543,7.803c7.165,6.572,14.01,13.396,19.116,21.865c2.883,4.787,6.097,9.393,9.157,14.061
			c1.773,2.75,3.432,5.588,5.318,8.047c1.978,2.516,5.285,1.639,6.435-1.715c1.233-3.25,2.586-6.455,3.535-9.744
			c0.874-3.168,1.409-6.41,1.808-9.637c0.334-4.004,0.59-8.121,0.564-12.139C1406.647,1154.137,1406.375,1147.934,1406.143,1141.865
			z"/>
	</g>
	<g>
		<path fill="#44749D" d="M1407.733,1109.871c-0.39-7.504-1.19-14.988-1.832-22.473c-0.036-0.398-0.52-0.744-0.576-1.143
			c-0.754-5.123-1.153-10.32-2.288-15.352c-0.996-4.379-0.13-8.859-2.417-13.34c-2.223-4.355-2.11-9.885-3.077-14.887
			c-1.072-5.596-1.918-11.25-3.377-16.744c-1.617-6.072-3.829-11.984-5.783-17.963c-1.59-4.861-3.113-9.752-4.797-14.588
			c-3.04-8.785-6.189-17.525-9.27-26.291c-1.005-2.844-1.626-5.859-2.91-8.553c-2.574-5.375-5.54-10.562-8.237-15.881
			c-2.054-4.045-3.719-8.293-5.94-12.244c-3.432-6.145-7.244-12.078-10.795-18.156c-2.954-5.059-5.558-10.35-8.7-15.285
			c-4.353-6.834-9.037-13.463-13.64-20.148c-3.627-5.271-7.288-10.521-11.019-15.729c-3.402-4.752-7.771-9.037-10.105-14.254
			c-2.334-5.205-1.367-10.887,1.235-16.566c2.177-4.752,2.149-10.506,3.171-15.799c0.827-4.256,0.53-8.543,2.539-12.828
			c2.025-4.342,2.473-9.559,2.937-14.459c0.588-6.201,1.518-12.271,2.585-18.416c1.972-11.336,2.23-22.984,3.058-34.504
			c0.465-6.525,0.634-13.07,0.977-19.6c0.038-0.705,0.335-1.404,0.53-2.102c1.405-4.993,3.096-9.827,0.66-15.163
			c-1.116-2.444-2.111-6.387-0.931-8.135c2.131-3.142,1.434-6.127,1.526-9.176c0.158-5.542-0.809-10.989-1.469-16.466
			c-1.221-10.227-0.876-20.547-2.81-30.858c-1.57-8.385-0.938-17.134-2.817-25.733c-1.432-6.554-1.133-13.463-2.778-20.24
			c-1.423-5.887-0.846-12.208-2.893-18.28c-1.395-4.164-1.059-8.748-2.752-13.201c-2.733-7.206-3.839-15.025-5.848-22.528
			c-1.691-6.378-3.719-12.664-5.531-19.004c-1.897-6.628-3.775-13.268-5.579-19.925c-2.071-7.643-3.894-15.358-6.144-22.944
			c-1.37-4.64-3.273-9.121-5.031-13.64c-2.602-6.638-5.217-13.276-7.967-19.858c-1.859-4.445-4.139-8.722-5.933-13.194
			c-2.398-5.977-4.239-12.198-6.832-18.083c-2.336-5.317-5.421-10.293-8.052-15.49c-1.416-2.78-2.371-5.802-3.84-8.552
			c-2.958-5.522-6.201-10.897-9.177-16.419c-2.444-4.519-4.491-9.27-7.037-13.732c-4.342-7.614-8.972-15.081-13.435-22.64
			c-1.664-2.826-3.086-5.802-4.779-8.619c-2.51-4.202-5.105-8.348-7.754-12.457c-4.157-6.444-8.303-12.887-12.597-19.237
			c-5.766-8.516-11.491-17.07-17.581-25.353c-3.701-5.049-8.203-9.502-12.06-14.439c-4.417-5.645-8.453-11.584-12.773-17.303
			c-2.139-2.826-4.686-5.354-6.815-8.19c-3.764-5.021-7.169-10.31-11.057-15.22c-4.796-6.071-9.816-11.965-14.931-17.757
			c-6.404-7.234-12.717-14.588-19.59-21.366c-12.328-12.17-24.954-24.043-37.643-35.841c-7.577-7.047-15.463-13.779-23.309-20.557
			c-5.496-4.751-11.083-9.409-16.755-13.965c-7.141-5.736-14.467-11.251-21.589-17.024c-5.43-4.407-10.496-9.288-16.009-13.583
			c-9.224-7.188-18.643-14.123-28.042-21.096c-4.1-3.04-8.283-5.978-12.531-8.814c-7.095-4.723-14.001-9.818-21.532-13.724
			c-2.66-1.375-7.476-0.761-10.238,0.818c-2.798,1.591,0.41,4.798,1.534,6.574c4.287,6.749,9.232,13.062,13.8,19.645
			c5.278,7.633,10.577,15.266,15.552,23.094c3.459,5.439,6.396,11.213,9.539,16.856c2.306,4.127,4.557,8.293,6.86,12.42
			c3.066,5.495,6.24,10.934,9.242,16.466c3.283,6.043,6.396,12.18,9.66,18.232c3.244,6.015,6.759,11.9,9.828,18.008
			c2.5,4.974,4.378,10.274,6.795,15.304c2.27,4.722,5.105,9.186,7.298,13.936c3.776,8.172,7.29,16.456,10.814,24.73
			c1.171,2.743,2.055,5.607,3.03,8.423c1.497,4.315,2.984,8.628,4.436,12.96c0.911,2.725,1.738,5.476,2.64,8.201
			c2.28,6.936,4.789,13.797,6.816,20.798c1.571,5.438,2.353,11.092,3.839,16.558c1.273,4.649,3.32,9.084,4.518,13.751
			c1.414,5.504,2.131,11.185,3.432,16.727c1.507,6.443,3.496,12.773,4.956,19.235c1.198,5.281,1.933,10.673,2.834,16.028
			c0.362,2.185-0.074,4.891,1.069,6.5c3.699,5.216,2.65,11.538,4.062,17.181c1.87,7.466,1.524,15.556,2.939,23.421
			c2.102,11.639,2.909,23.651,2.881,35.505c-0.019,11.632,0.299,23.225-1.171,35.005c-2.288,18.315,0.8,37.096-3.144,55.522
			c-1.636,7.653-1.99,15.574-2.909,23.375c-0.325,2.816-0.362,5.689-0.985,8.442c-1.377,6.182-3.152,12.281-4.557,18.464
			c-1.104,4.843-1.775,9.78-2.854,14.634c-1.757,7.93-3.662,15.823-5.559,23.727c-1.182,4.917-2.278,9.883-3.764,14.718
			c-1.628,5.29-3.963,10.367-5.433,15.694c-1.271,4.593-6.368,6.936-10.068,4.278c-2.77-1.999-5.753-3.729-8.738-5.411
			c-3.487-1.97-7.225-3.522-10.562-5.689c-5.355-3.469-10.394-7.401-15.711-10.924c-6.742-4.464-13.734-8.572-20.428-13.107
			c-5.188-3.517-9.976-7.616-15.134-11.178c-8.714-6.015-17.563-11.807-26.361-17.701c-7.093-4.76-14.288-9.362-21.234-14.327
			c-7.633-5.458-15.061-11.203-22.525-16.892c-5.626-4.288-11.083-8.796-16.783-12.989c-6.675-4.908-13.583-9.511-20.286-14.381
			c-7.559-5.497-15.034-11.111-22.509-16.727c-7.373-5.541-14.671-11.174-22.043-16.716c-7.475-5.615-14.997-11.167-22.491-16.745
			c-9.036-6.723-18.157-13.352-27.092-20.222c-5.513-4.23-10.804-8.768-16.113-13.286c-6.946-5.903-13.815-11.91-20.706-17.888
			c-2.584-2.25-5.049-4.658-7.745-6.769c-6.36-4.956-12.848-9.734-19.235-14.66c-4.557-3.506-9.047-7.114-13.528-10.721
			c-8.218-6.629-16.521-13.146-24.554-19.98c-7.327-6.21-14.375-12.756-21.477-19.218c-1.813-1.656-3.189-3.821-5.104-5.327
			c-4.119-3.254-8.683-5.968-12.634-9.4c-6.313-5.466-12.255-11.361-18.382-17.042c-3.505-3.263-6.954-6.62-10.646-9.668
			c-5.114-4.222-10.599-7.997-15.61-12.319c-5.931-5.124-11.51-10.646-17.264-15.964c-7.262-6.713-14.606-13.333-21.811-20.111
			c-8.034-7.54-15.955-15.21-23.914-22.834c-12.494-11.966-25.046-23.866-37.439-35.952c-6.164-6.005-11.836-12.522-18.027-18.502
			c-8.973-8.665-18.242-17.023-27.316-25.577c-3.495-3.292-6.693-6.898-10.246-10.135c-2.966-2.705-6.573-4.769-9.288-7.679
			c-2.65-2.844-4.472-6.434-6.779-9.613c-0.604-0.836-1.589-1.44-2.492-2.008c-0.158-0.103-1.17,0.632-1.124,0.837
			c0.26,1.274,0.576,2.575,1.152,3.737c0.687,1.386,2.659,3.431,2.343,3.831c-2.66,3.356,0.688,4.565,2.037,6.387
			c4.184,5.67,8.442,11.287,12.681,16.902c1.33,1.759,2.827,3.404,4.006,5.244c2.326,3.635,4.269,7.54,6.769,11.045
			c5.942,8.349,12.19,16.476,18.177,24.787c5.95,8.274,11.696,16.698,17.609,25c3.412,4.779,6.945,9.475,10.458,14.188
			c4.63,6.22,9.297,12.413,13.955,19.543c0.93,1.087,1.924,2.118,2.78,3.262c5.597,7.484,11.157,15.005,16.745,22.491
			c6.751,9.036,13.379,18.156,20.333,27.035c5.857,7.495,12.245,14.57,18.149,22.027c4.453,5.615,8.368,11.65,12.784,17.293
			c6.023,7.708,12.383,15.144,18.436,22.825c4.062,5.16,7.772,10.58,11.779,15.786c3.7,4.807,7.614,9.438,11.361,14.207
			c5.476,6.954,10.757,14.084,16.383,20.918c3.625,4.417,7.745,8.415,11.602,12.645c2.417,2.64,4.9,5.244,7.094,8.06
			c4.974,6.351,9.613,12.961,14.698,19.208c5.662,6.954,11.659,13.63,17.545,20.408c6.275,7.242,12.607,14.447,18.882,21.691
			c5.773,6.657,11.38,13.463,17.284,20.006c10.217,11.334,20.454,22.658,30.96,33.722c8.433,8.871,17.293,17.321,25.902,26.033
			c1.878,1.896,3.747,3.904,5.094,6.181c0.558,0.93,1.255,3.739-1.878,3.191c-1.543-0.271-3.142-0.707-4.491-1.47
			c-3.895-2.175-7.669-4.556-11.501-6.862c-7-4.229-14.112-8.284-20.975-12.728c-6.47-4.201-12.634-8.87-19.021-13.202
			c-5.254-3.57-10.711-6.852-15.945-10.459c-3.728-2.575-7.159-5.596-10.868-8.21c-5.114-3.616-10.403-6.981-15.544-10.562
			c-4.173-2.908-8.201-6.051-12.375-8.97c-5.133-3.589-10.404-6.974-15.507-10.6c-5.83-4.137-11.474-8.526-17.322-12.635
			c-7.178-5.056-14.55-9.862-21.727-14.931c-4.138-2.93-7.978-6.285-12.106-9.242c-5.309-3.803-10.775-7.381-16.158-11.072
			c-4.546-3.124-9.121-6.211-13.593-9.428c-5.625-4.036-11.203-8.136-16.726-12.319c-5.113-3.877-10.116-7.893-15.184-11.834
			c-7.083-5.504-14.179-10.999-21.29-16.467c-5.012-3.839-10.087-7.586-15.09-11.435c-7.01-5.374-13.964-10.823-20.965-16.216
			c-5.123-3.932-10.264-7.827-15.407-11.732c-6.945-5.281-13.992-10.432-20.824-15.86c-5.998-4.761-11.687-9.902-17.628-14.737
			c-8.963-7.298-18.083-14.401-27.008-21.737c-6.871-5.653-13.407-11.724-20.352-17.284c-8.61-6.889-17.628-13.277-26.218-20.203
			c-6.081-4.899-11.752-10.32-17.6-15.508c-2.436-2.166-4.825-4.378-7.308-6.488c-4.974-4.241-10.087-8.313-14.978-12.646
			c-3.319-2.947-6.248-6.35-9.549-9.325c-6.983-6.303-14.169-12.375-21.142-18.688c-7.131-6.462-14.058-13.146-21.207-19.571
			c-0.614-0.559-2.259,0.038-3.43,0.092c0.502,0.94,0.902,1.943,1.534,2.79c0.782,1.042,2.361,1.851,2.529,2.92
			c0.828,5.383,1.432,10.552,5.56,14.912c2.92,3.078,4.593,7.307,7.019,10.887c2.855,4.211,5.969,8.257,8.897,12.431
			c3.671,5.235,10.962,15.731,10.962,15.731s8.98,10.013,13.173,15.257c6.453,8.069,12.551,16.417,18.929,24.553
			c3.124,3.97,6.732,7.559,9.791,11.576c3.979,5.206,7.382,10.869,11.51,15.944c4.89,6.044,10.505,11.501,15.434,17.516
			c6.712,8.209,13.034,16.744,19.616,25.075c4.593,5.792,9.399,11.417,14.011,17.208c7.14,8.98,14.142,18.083,21.319,27.037
			c5.058,6.313,10.041,12.709,15.554,18.604c5.932,6.35,11.76,12.673,16.977,19.683c5.69,7.651,12.487,14.466,18.688,21.747
			c4.146,4.872,7.94,10.04,12.161,14.838c4.705,5.337,9.791,10.339,14.551,15.62c2.556,2.826,4.723,6.005,7.168,8.934
			c4.165,5.021,8.302,10.069,12.653,14.914c2.9,3.226,6.341,5.959,9.204,9.212c6.982,7.893,13.622,16.103,20.678,23.931
			c6.35,7.047,13.109,13.713,19.599,20.64c7.4,7.903,14.586,16.01,22.062,23.838c10.683,11.194,21.357,22.417,32.374,33.285
			c28.774,28.374,57.717,56.583,86.632,84.828c7.875,7.697,15.804,15.34,23.828,22.871c4.946,4.639,10.478,8.711,15.136,13.621
			c7.596,8.016,16.411,14.578,24.564,21.904c6.47,5.811,12.858,11.576,19.84,16.791c6.778,5.068,13.017,10.869,19.366,16.484
			c1.748,1.551,2.846,3.865,4.622,5.383c4.173,3.545,8.608,6.758,12.866,10.199c3.83,3.086,7.457,6.441,11.391,9.4
			c4.342,3.254,9.035,6.043,13.385,9.305c4.325,3.248,8.442,6.76,12.553,10.285c1.561,1.338,2.816,3.039,4.212,4.582
			c-1.487,1.031-2.956,2.092-4.463,3.096c-0.595,0.391-1.292,0.633-1.906,0.996c-7.036,4.221-13.807,8.99-21.149,12.561
			c-11.279,5.475-22.967,10.115-34.459,15.154c-7.559,3.318-14.968,7.018-22.667,9.975c-6.786,2.604-13.879,4.389-20.834,6.566
			c-4.91,1.533-9.762,3.307-14.728,4.629c-5.197,1.395-10.514,2.277-15.74,3.543c-6.294,1.533-12.486,3.541-18.836,4.787
			c-4.556,0.893-9.111,0.93-13.724,2.613c-5.68,2.074-12.058,2.492-18.194,2.967c-7.094,0.537-14.066,0.799-21.142,2.604
			c-8.293,2.119-17.116,2.434-25.734,2.994c-8.096,0.514-16.215,0.793-24.33,0.891c-0.733,0.041-1.469,0.066-2.208,0.066
			c-0.153,0-0.299-0.029-0.449-0.045c-1.102,0.008-2.204,0.025-3.303,0.025c-9.949,0-19.897-0.465-29.835-0.895
			c-11.985-0.508-24.025-0.686-35.925-2.043c-6.397-0.727-12.812-0.197-19.357-2.213c-7.949-2.455-16.783-1.889-25.131-3.273
			c-5.477-0.912-10.999-0.064-16.567-2.371c-5.532-2.287-12.086-2.074-18.158-3.105c-6.033-1.031-12.067-2.092-18.036-3.412
			c-6.638-1.479-13.193-3.301-19.793-4.928c-5.188-1.283-10.479-2.193-15.564-3.803c-6.936-2.193-13.695-4.928-20.565-7.346
			c-5.505-1.932-11.055-3.756-16.586-5.588c-6.639-2.191-13.268-4.387-19.934-6.477c-1.265-0.393-2.798,0.018-3.999-0.457
			c-6.507-2.557-12.923-5.338-19.413-7.924c-3.169-1.264-6.527-2.092-9.651-3.467c-4.806-2.1-9.409-4.686-14.243-6.748
			c-7.633-3.256-15.527-5.941-23.048-9.43c-6.435-2.975-12.477-6.77-18.734-10.125c-6.573-3.514-13.203-6.916-19.786-10.402
			c-5.699-3.014-11.38-6.062-17.05-9.139c-4.537-2.467-9.149-4.818-13.519-7.549c-6.628-4.148-13.007-8.695-19.636-12.859
			c-4.863-3.059-10.107-5.514-14.894-8.684c-6.062-4.008-11.743-8.602-17.758-12.699c-6.694-4.564-13.536-8.926-20.473-13.092
			c-0.521-0.316-3.923-9.029-3.988,0.438c0,0.492-1.301,1.318-2.064,1.406c-3.134,0.324-1.562,1.447-0.502,2.5
			c0.548,0.539,1.282,0.93,1.71,1.543c3.552,5.158,7.038,10.355,10.562,15.533c2.362,3.461,4.705,6.947,7.131,10.359
			c2.808,3.934,5.644,7.855,8.59,11.697c3.505,4.564,7.261,8.941,10.691,13.555c4.807,6.471,9.232,13.221,14.161,19.6
			c4.091,5.289,8.758,10.143,13.017,15.311c6.099,7.4,11.929,15.045,18.129,22.352c4.658,5.486,9.53,10.812,14.653,15.871
			c11.929,11.771,24.173,23.232,36.091,35.014c13.556,13.396,27.074,26.766,42.564,38.033c6.619,4.818,12.263,10.953,18.585,16.197
			c6.341,5.252,12.969,10.152,19.487,15.191c5.355,4.137,10.654,8.357,16.121,12.346c4.797,3.506,9.828,6.703,14.689,10.117
			c4.537,3.188,8.889,6.637,13.5,9.705c6.731,4.48,13.648,8.691,20.445,13.082c4.249,2.74,8.321,5.752,12.653,8.367
			c5.16,3.113,10.488,5.951,15.76,8.859c3.737,2.062,7.521,4.037,11.277,6.055c4.313,2.324,8.599,4.676,12.915,6.98
			c7.27,3.885,14.549,7.746,21.838,11.613c5.262,2.797,10.45,5.781,15.833,8.32c8.888,4.193,17.897,8.152,26.897,12.104
			c2.883,1.266,5.97,2.066,8.842,3.328c2.714,1.201,5.188,2.957,7.912,4.092c6.062,2.529,12.217,4.807,18.326,7.205
			c5.7,2.25,11.323,4.734,17.116,6.732c7.066,2.434,14.291,4.404,21.403,6.701c10.218,3.303,20.37,6.824,30.616,10.051
			c6.573,2.064,13.174,4.332,19.934,5.459c7.476,1.246,14.616,3.301,21.793,5.607c7.549,2.426,15.35,4.219,23.158,5.566
			c4.743,0.828,9.42,1.369,14.161,2.66c7.233,1.971,14.978,2.018,22.471,3.098c6.407,0.92,12.831,0.426,19.31,2.453
			c7.114,2.23,14.923,2.576,22.473,2.994c11.938,0.66,23.905,0.893,35.868,0.984c19.831,0.148,39.662,0.039,59.493,0.039
			c1.087,0,2.176,0.084,3.255-0.012c10.003-0.91,19.989-1.877,29.992-2.77c4.503-0.398,9.084-0.314,13.521-1.086
			c7.009-1.221,13.907-3.107,20.898-4.465c6.463-1.254,13.024-1.998,19.47-3.336c7.065-1.471,14.047-3.33,21.058-5.078
			c8.256-2.053,16.531-4.043,24.731-6.312c4.974-1.375,9.81-3.254,14.736-4.824c4.628-1.479,9.361-2.678,13.937-4.314
			c6.824-2.447,13.563-5.15,20.315-7.791c4.937-1.924,9.927-3.738,14.745-5.914c3.233-1.459,6.135-3.623,9.321-5.188
			c2.819-1.375,5.972-2.109,8.742-3.57c5.718-3.012,11.24-6.396,16.921-9.473c6.527-3.533,13.117-6.953,19.729-10.338
			c4.845-2.492,9.707-4.982,14.681-7.205c4.647-2.084,9.475-3.805,14.197-5.729c6.062-2.455,12.031-5.133,18.176-7.363
			c4.297-1.562,8.805-2.555,13.24-3.756c5.829-1.58,11.595-3.605,17.526-4.518c4.777-0.744,9.437-1.609,14.148-2.65
			c8.816-1.963,18.019-2.947,27.058-2.883c10.395,0.082,20.724-0.752,31.303,1.221c10.507,1.941,21.077,3.373,31.352,6.479
			c1.785,0.539,3.811,0.408,5.514,1.105c3.58,1.469,6.963,3.377,10.506,4.908c4.817,2.092,9.968,3.551,14.483,6.117
			c5.421,3.078,10.35,7.002,15.444,10.629c5.614,3.998,11.678,7.531,16.659,12.205c11.093,10.414,21.979,21.098,29.946,34.318
			c4.556,7.547,9.521,14.865,14.337,22.256c2.763,4.24,5.384,8.592,8.462,12.59c3.011,3.896,8.217,2.586,10.133-2.779
			c1.822-5.105,4.025-10.098,5.478-15.305c1.357-4.889,2.275-9.965,2.798-15.014c0.652-6.35,0.985-12.756,0.947-19.133
			C1408.591,1129.139,1408.237,1119.494,1407.733,1109.871z"/>
	</g>
</g>
<text transform="matrix(1.2888 0 0 1 66.3574 1431.5264)" fill="#71A7D4" font-family="'MyriadPro-BoldCond'" font-size="264.7134">Swift Street</text>
</svg>
