<?xml version="1.0" encoding="utf-8"?>
<!-- Generator: Adobe Illustrator 16.0.0, SVG Export Plug-In . SVG Version: 6.00 Build 0)  -->
<!DOCTYPE svg PUBLIC "-//W3C//DTD SVG 1.1//EN" "http://www.w3.org/Graphics/SVG/1.1/DTD/svg11.dtd">
<svg version="1.1" id="Layer_1" xmlns="http://www.w3.org/2000/svg" xmlns:xlink="http://www.w3.org/1999/xlink" x="0px" y="0px"
	 width="5870.341px" height="1536px" viewBox="0 0 5870.341 1536" enable-background="new 0 0 5870.341 1536" xml:space="preserve">
<g>
	<g>
		<path fill="#71A7D4" d="M1537.321,1390.674c-0.332-5.559-0.854-11.094-1.432-16.662c-0.033-0.332-0.363-0.641-0.389-0.979
			c-0.61-3.811-0.826-7.65-1.775-11.422c-0.71-3.168-0.074-6.553-1.793-9.842c-1.6-3.318-1.5-7.365-2.205-11.131
			c-0.775-4.111-1.492-8.385-2.576-12.354c-1.16-4.666-2.877-8.99-4.235-13.373c-1.232-3.658-2.406-7.377-3.534-10.938
			c-2.324-6.512-4.73-12.982-6.936-19.479c-0.703-2.158-1.265-4.475-2.221-6.502c-1.917-3.945-4.08-7.775-6.045-11.699
			c-1.623-3.043-2.874-6.27-4.521-9.229c-2.489-4.535-5.321-8.873-7.969-13.438c-2.215-3.799-4.158-7.645-6.477-11.41
			c-3.231-5.021-6.766-9.99-10.195-15.01c-2.664-3.949-5.361-7.824-8.123-11.641c-2.59-3.604-5.796-6.666-7.548-10.561
			c-1.81-3.889-0.979-8.207,0.963-12.32c1.56-3.68,1.533-7.861,2.252-11.826c0.651-3.234,0.479-6.291,1.888-9.553
			c1.627-3.291,1.838-7.115,2.246-10.822c0.367-4.584,1.165-9.051,1.928-13.584c1.414-8.404,1.607-17.096,2.219-25.686
			c0.354-4.861,0.505-9.756,0.814-14.637c0.031-0.479,0.238-1.062,0.307-1.527c1.035-3.705,2.358-7.369,0.564-11.277
			c-0.806-1.883-1.656-4.736-0.673-6.068c1.554-2.383,0.944-4.547,1.011-6.863c0.143-4.143-0.529-8.135-0.979-12.229
			c-1.014-7.609-0.734-15.301-2.076-22.988c-1.213-6.195-0.822-12.73-2.137-19.17c-1.09-4.859-0.819-9.932-2.104-15.031
			c-1.079-4.367-0.564-9.064-2.202-13.59c-0.973-3.121-0.756-6.547-2.032-9.842c-1.976-5.311-2.765-11.146-4.312-16.717
			c-1.318-4.75-2.748-9.484-4.131-14.201c-1.357-4.869-2.85-9.848-4.075-14.77c-1.621-5.705-2.905-11.422-4.634-17.115
			c-0.932-3.402-2.447-6.734-3.78-10.104c-1.916-4.979-3.84-9.889-5.83-14.783c-1.468-3.301-3.118-6.512-4.493-9.861
			c-1.804-4.402-3.092-9.033-5.012-13.404c-1.805-3.986-4.064-7.668-6.034-11.549c-1.073-2.102-1.733-4.324-2.855-6.402
			c-2.267-4.072-4.585-8.094-6.865-12.186c-1.802-3.367-3.267-6.9-5.165-10.207c-3.283-5.689-6.652-11.24-10.071-16.846
			c-1.252-2.139-2.181-4.326-3.504-6.449c-1.86-3.096-3.797-6.188-5.782-9.232c-3.144-4.803-6.13-9.604-9.344-14.322
			c-4.355-6.365-8.549-12.677-13.105-18.839c-2.711-3.774-6.112-7.105-8.986-10.797c-3.234-4.182-6.26-8.621-9.504-12.878
			c-1.525-2.05-3.418-3.933-5.109-6.077c-2.816-3.722-5.281-7.685-8.184-11.307c-3.52-4.541-7.24-8.896-11.046-13.199
			c-4.776-5.405-9.455-10.879-14.645-15.934c-9.108-9.059-18.573-17.856-28.062-26.676c-5.658-5.246-11.445-10.213-17.226-15.297
			c-4.147-3.495-8.38-6.988-12.484-10.39c-5.432-4.268-10.829-8.334-16.042-12.633c-4.091-3.279-7.854-6.949-12.021-10.131
			c-6.903-5.363-13.782-10.519-20.852-15.698c-3.093-2.238-6.065-4.455-9.283-6.538c-5.353-3.549-10.409-7.339-15.991-10.246
			c-1.996-1.011-5.533-0.552-7.617,0.625c-2.121,1.189,0.225,3.572,1.12,4.913c3.119,4.987,6.773,9.683,10.286,14.6
			c3.953,5.673,7.837,11.347,11.604,17.196c2.518,4.022,4.735,8.314,6.992,12.531c1.676,3.065,3.461,6.176,5.181,9.234
			c2.161,4.094,4.618,8.146,6.885,12.242c2.394,4.527,4.72,9.059,7.137,13.604c2.395,4.443,5.087,8.816,7.248,13.398
			c1.854,3.697,3.347,7.635,5.12,11.395c1.645,3.466,3.799,6.785,5.373,10.356c2.801,6.059,5.551,12.218,8.141,18.369
			c0.854,2.069,1.447,4.188,2.17,6.286c1.105,3.186,2.246,6.433,3.353,9.672c0.62,1.999,1.366,4.029,1.978,6.084
			c1.652,5.146,3.514,10.231,5.123,15.457c1.028,4.069,1.733,8.261,2.83,12.337c0.977,3.434,2.432,6.73,3.311,10.229
			c1.075,4.078,1.532,8.312,2.49,12.463c1.156,4.803,2.748,9.504,3.74,14.322c0.965,3.906,1.465,7.912,2.075,11.928
			c0.326,1.574-0.067,3.609,0.822,4.801c2.799,3.855,1.935,8.576,2.998,12.826c1.485,5.527,1.174,11.514,2.247,17.396
			c1.49,8.682,2.222,17.598,2.195,26.416c-0.018,8.633,0.162,17.271-0.868,26.082c-1.83,13.594,0.532,27.604-2.417,41.299
			c-1.273,5.691-1.396,11.582-2.215,17.35c-0.103,2.137-0.133,4.225-0.693,6.305c-1.039,4.564-2.271,9.158-3.301,13.752
			c-0.862,3.637-1.401,7.281-2.172,10.854c-1.383,5.941-2.697,11.85-4.207,17.721c-0.863,3.664-1.65,7.346-2.791,10.9
			c-1.188,3.965-2.967,7.736-4.006,11.732c-0.981,3.338-4.78,5.092-7.554,3.131c-1.969-1.48-4.179-2.791-6.47-3.992
			c-2.538-1.533-5.303-2.688-7.883-4.283c-3.859-2.521-7.646-5.465-11.573-8.08c-5.072-3.379-10.283-6.432-15.196-9.764
			c-3.871-2.605-7.502-5.658-11.312-8.33c-6.567-4.48-13.136-8.766-19.656-13.145c-5.187-3.6-10.669-6.961-15.728-10.684
			c-5.69-4.064-11.209-8.338-16.838-12.562c-4.111-3.182-8.226-6.521-12.472-9.697c-4.92-3.619-10.117-7.064-15.108-10.652
			c-5.625-4.148-11.185-8.305-16.716-12.461c-5.454-4.107-10.939-8.367-16.45-12.455c-5.531-4.158-11.104-8.324-16.653-12.479
			c-6.737-4.955-13.55-9.926-20.196-15.012c-4.086-3.164-8.029-6.535-12.012-9.865c-5.153-4.414-10.241-8.924-15.346-13.314
			c-1.927-1.719-3.787-3.486-5.772-5.088c-4.728-3.664-9.571-7.234-14.324-10.902c-3.401-2.576-6.747-5.305-10.082-7.953
			c-6.1-4.969-12.276-9.812-18.308-14.895c-5.402-4.592-10.647-9.486-15.944-14.305c-1.331-1.189-2.372-2.844-3.797-3.928
			c-3.096-2.418-6.479-4.445-9.377-7.035c-4.722-4.021-9.136-8.432-13.714-12.646c-2.596-2.438-5.203-4.961-7.928-7.207
			c-3.806-3.119-7.846-5.947-11.615-9.189c-4.383-3.812-8.562-7.891-12.825-11.879c-5.403-4.945-10.917-9.907-16.207-14.913
			c-6.033-5.632-11.894-11.339-17.833-17.022c-9.279-8.914-18.655-17.73-27.826-26.722c-4.641-4.502-8.849-9.367-13.423-13.773
			c-6.682-6.483-13.627-12.708-20.341-19.032c-2.607-2.446-4.986-5.162-7.62-7.562c-2.237-1.985-4.885-3.539-6.931-5.712
			c-1.986-2.11-3.326-4.779-5.004-7.147c-0.459-0.61-1.231-1.057-1.866-1.479c-0.119-0.08-0.901,0.474-0.878,0.588
			c0.224,0.947,0.439,1.912,0.892,2.799c0.492,1.01,1.95,2.533,1.745,2.853c-1.995,2.471,0.521,3.377,1.533,4.754
			c3.068,4.233,6.255,8.403,9.421,12.561c0.998,1.297,2.073,2.564,2.979,3.924c1.723,2.675,3.172,5.589,5.024,8.23
			c4.449,6.197,9.076,12.252,13.543,18.438c4.384,6.15,8.658,12.436,13.083,18.612c2.57,3.505,5.154,7.033,7.818,10.542
			c3.388,4.637,6.874,9.213,10.367,14.535c0.646,0.781,1.434,1.604,2.054,2.438c4.192,5.539,8.298,11.13,12.43,16.749
			c5.079,6.705,9.949,13.457,15.165,20.068c4.319,5.629,9.072,10.893,13.489,16.418c3.312,4.156,6.233,8.693,9.513,12.873
			c4.525,5.74,9.251,11.238,13.7,16.955c3.062,3.846,5.801,7.916,8.812,11.756c2.729,3.59,5.655,7.061,8.43,10.553
			c4.093,5.186,7.986,10.484,12.167,15.623c2.753,3.285,5.76,6.197,8.636,9.402c1.816,1.979,3.701,3.91,5.288,5.959
			c3.707,4.719,7.157,9.672,10.938,14.297c4.201,5.164,8.698,10.176,13.099,15.18c4.651,5.422,9.353,10.789,14.004,16.131
			c4.3,4.998,8.481,10.023,12.862,14.92c7.604,8.406,15.223,16.852,23.082,25.066c6.259,6.596,12.875,12.898,19.258,19.363
			c1.359,1.482,2.783,2.896,3.787,4.617c0.371,0.705,0.931,2.805-1.422,2.4c-1.128-0.242-2.301-0.564-3.313-1.123
			c-2.938-1.561-5.738-3.373-8.586-5.105c-5.206-3.104-10.511-6.131-15.589-9.463c-4.828-3.139-9.379-6.562-14.129-9.824
			c-3.933-2.65-7.996-5.107-11.859-7.756c-2.8-1.918-5.348-4.18-8.088-6.102c-3.807-2.748-7.77-5.186-11.602-7.902
			c-3.089-2.119-6.083-4.461-9.218-6.68c-3.812-2.631-7.694-5.18-11.49-7.844c-4.35-3.127-8.532-6.379-12.897-9.396
			c-5.363-3.797-10.836-7.365-16.166-11.127c-3.127-2.188-5.984-4.66-9.001-6.918c-3.982-2.83-8.052-5.453-12.052-8.182
			c-3.395-2.326-6.814-4.688-10.143-7.061c-4.165-2.961-8.288-6.053-12.458-9.119c-3.806-2.893-7.514-5.908-11.276-8.859
			c-5.278-4.057-10.567-8.195-15.836-12.227c-3.75-2.857-7.521-5.633-11.226-8.498c-5.214-4.041-10.374-8.047-15.579-12.104
			c-3.814-2.939-7.645-5.822-11.475-8.703c-5.154-3.92-10.399-7.756-15.506-11.83c-4.448-3.502-8.674-7.332-13.123-10.967
			c-6.67-5.393-13.474-10.689-20.115-16.174c-5.094-4.213-9.979-8.68-15.135-12.84c-6.367-5.15-13.074-9.902-19.51-15.039
			c-4.483-3.613-8.719-7.695-13.055-11.561c-1.836-1.56-3.641-3.249-5.477-4.802c-3.68-3.166-7.483-6.195-11.122-9.437
			c-2.456-2.153-4.679-4.718-7.115-6.896c-5.205-4.681-10.522-9.243-15.724-13.929c-5.291-4.82-10.463-9.751-15.766-14.53
			c-0.458-0.436-1.726,0.024-2.587,0.05c0.366,0.686,0.703,1.436,1.174,2.051c0.559,0.801,1.734,1.369,1.884,2.209
			c0.588,3.969,1.045,7.824,4.107,11.054c2.178,2.305,3.438,5.478,5.223,8.103c2.145,3.186,4.473,6.145,6.612,9.293
			c2.738,3.891,8.17,11.666,8.17,11.666s6.688,7.474,9.792,11.345c4.793,6.062,9.375,12.269,14.119,18.306
			c2.312,2.977,4.962,5.607,7.264,8.625c2.938,3.887,5.5,8.088,8.565,11.859c3.655,4.475,7.813,8.557,11.463,13.021
			c5.033,6.131,9.726,12.432,14.644,18.633c3.39,4.316,6.975,8.49,10.429,12.803c5.299,6.682,10.511,13.479,15.817,20.141
			c3.779,4.688,7.521,9.447,11.588,13.855c4.44,4.719,8.782,9.412,12.633,14.625c4.264,5.688,9.299,10.775,13.884,16.182
			c3.135,3.66,5.95,7.475,9.051,11.062c3.539,4.002,7.317,7.713,10.853,11.633c1.902,2.078,3.504,4.441,5.308,6.656
			c3.151,3.744,6.177,7.49,9.43,11.053c2.177,2.406,4.74,4.469,6.854,6.896c5.188,5.846,10.168,11.979,15.422,17.75
			c4.719,5.271,9.704,10.229,14.549,15.389c5.521,5.918,10.835,11.941,16.436,17.713c7.952,8.391,15.864,16.742,24.086,24.775
			c21.414,21.105,42.979,42.109,64.418,63.145c5.891,5.734,11.83,11.418,17.756,16.996c3.684,3.484,7.837,6.443,11.289,10.113
			c5.684,5.971,12.22,10.883,18.27,16.277c4.811,4.436,9.542,8.625,14.761,12.521c5.054,3.762,9.724,8.188,14.439,12.246
			c1.249,1.195,2.118,2.881,3.368,4.045c3.151,2.592,6.481,5.092,9.582,7.586c2.85,2.383,5.56,4.801,8.479,7.064
			c3.287,2.33,6.712,4.441,10.031,6.861c3.147,2.441,6.202,5.006,9.303,7.617c1.205,0.988,2.138,2.301,3.152,3.492
			c-1.099,0.729-2.222,1.482-3.377,2.221c-0.384,0.316-0.968,0.533-1.362,0.861c-5.294,3-10.29,6.691-15.804,9.312
			c-8.355,4.094-17.08,7.508-25.63,11.246c-5.606,2.404-11.078,5.209-16.812,7.383c-5.112,1.945-10.321,3.354-15.563,4.912
			c-3.62,1.182-7.188,2.436-10.932,3.418c-3.822,1.008-7.8,1.801-11.706,2.742c-4.668,1.057-9.247,2.586-13.993,3.51
			c-3.383,0.604-6.771,0.639-10.228,1.955c-4.214,1.463-8.958,1.84-13.549,2.193c-5.281,0.359-10.472,0.594-15.741,1.91
			c-6.152,1.619-12.749,1.863-19.107,2.205c-7.533,0.58-15.088,0.73-22.578,0.73c-7.358,0-14.817-0.305-22.168-0.688
			c-8.916-0.355-17.931-0.43-26.752-1.441c-4.761-0.652-9.537-0.178-14.433-1.697c-5.856-1.883-12.451-1.395-18.658-2.441
			c-4.104-0.623-8.177-0.062-12.347-1.736c-4.127-1.658-9.003-1.545-13.497-2.395c-4.531-0.73-8.967-1.484-13.442-2.477
			c-4.924-1.131-9.779-2.408-14.726-3.637c-3.872-0.955-7.798-1.643-11.588-2.824c-5.172-1.645-10.16-3.637-15.276-5.457
			c-4.127-1.498-8.226-2.857-12.35-4.188c-4.936-1.576-9.903-3.354-14.811-4.84c-0.942-0.352-2.119,0.018-3-0.408
			c-4.86-1.904-9.638-3.875-14.47-5.781c-2.36-0.971-4.829-1.639-7.167-2.676c-3.562-1.492-7.008-3.418-10.566-4.936
			c-5.684-2.475-11.577-4.496-17.15-7.031c-4.792-2.281-9.329-5.1-13.97-7.52c-4.898-2.582-9.796-5.229-14.718-7.768
			c-4.231-2.314-8.447-4.459-12.664-6.832c-3.377-1.818-6.83-3.537-10.065-5.6c-4.968-3.133-9.712-6.43-14.624-9.578
			c-3.637-2.305-7.537-4.166-11.072-6.42c-4.539-3.01-8.771-6.352-13.218-9.436c-2.212-1.557-4.438-3.033-6.68-4.471
			c-0.362,0.193-0.741,0.361-1.15,0.461c-2.444,0.58-4.923,0.736-7.426,0.736c-0.937,0-1.81-0.268-2.585-0.697
			c2.306,3.338,4.558,6.707,6.869,10.07c1.738,2.703,3.473,5.254,5.291,7.727c2.07,2.941,4.216,5.875,6.379,8.732
			c2.63,3.393,5.432,6.654,7.958,10.029c3.598,4.809,6.883,9.885,10.526,14.627c3.078,3.965,6.538,7.531,9.717,11.391
			c4.512,5.465,8.842,11.15,13.479,16.729c3.442,3.941,7.101,7.938,10.913,11.691c8.871,8.801,17.997,17.32,26.831,26.131
			c10.106,9.906,20.181,19.906,31.692,28.25c4.897,3.539,9.106,8.236,13.823,12.082c4.729,3.857,9.63,7.59,14.499,11.371
			c4.004,2.941,7.907,6.143,12.02,9.135c3.52,2.555,7.277,4.998,10.928,7.508c3.385,2.408,6.604,4.979,10.056,7.143
			c4.962,3.436,10.099,6.625,15.212,9.777c3.126,2.07,6.192,4.385,9.396,6.338c3.847,2.201,7.806,4.355,11.69,6.557
			c2.803,1.479,5.633,3.023,8.448,4.473c3.194,1.691,6.353,3.412,9.576,5.148c5.409,2.943,10.86,5.736,16.229,8.67
			c3.938,2.045,7.811,4.334,11.802,6.221c6.638,3.178,13.317,6.02,19.995,8.992c2.179,0.879,4.459,1.568,6.621,2.506
			c1.971,0.879,3.834,2.139,5.85,3.086c4.559,1.875,9.102,3.527,13.685,5.285c4.241,1.629,8.416,3.463,12.732,5.059
			c5.264,1.797,10.581,3.18,15.872,4.969c7.604,2.445,15.186,5.02,22.802,7.523c4.889,1.457,9.835,3.104,14.82,3.957
			c5.586,0.883,10.88,2.525,16.226,4.205c5.6,1.783,11.423,3.201,17.256,4.154c3.504,0.605,6.982,1.066,10.553,1.943
			c5.324,1.486,11.088,1.527,16.725,2.297c4.759,0.699,9.521,0.391,14.302,1.812c5.306,1.65,11.138,1.922,16.767,2.299
			c8.875,0.424,17.797,0.6,26.723,0.686c14.707,0.135,29.521,0.031,44.224,0.031c0.78,0,1.604,0.076,2.458-0.006
			c7.438-0.621,14.876-1.404,22.283-2.096c3.365-0.189,6.781-0.166,10.075-0.781c5.212-0.896,10.399-2.318,15.521-3.23
			c4.819-1.018,9.729-1.588,14.533-2.592c5.161-1.09,10.448-2.396,15.615-3.771c6.181-1.449,12.32-3.016,18.419-4.686
			c3.678-1.041,7.245-2.328,11.012-3.547c3.428-1.129,6.892-2.008,10.41-3.281c4.942-1.805,10.015-3.84,15.093-5.818
			c3.646-1.332,7.34-2.762,10.879-4.322c2.514-1.117,4.59-2.666,6.997-3.873c2.138-1.039,4.376-1.535,6.47-2.613
			c4.352-2.314,8.322-4.762,12.64-7.133c4.877-2.584,9.797-5.102,14.638-7.691c3.691-1.859,7.27-3.707,10.948-5.307
			c3.387-1.574,7.049-2.826,10.586-4.275c4.458-1.861,8.946-3.814,13.532-5.516c3.11-1.203,6.563-1.898,9.758-2.781
			c4.451-1.186,8.641-2.646,13.105-3.268c3.58-0.672,6.977-1.25,10.58-1.986c6.518-1.564,13.362-2.256,20.006-2.197
			c7.76,0.074,15.463-0.574,23.391,0.898c7.863,1.49,15.639,2.441,23.272,4.834c1.366,0.455,2.796,0.367,4.123,0.797
			c2.625,1.121,5.265,2.473,7.862,3.623c3.537,1.684,7.376,2.645,10.791,4.549c3.939,2.33,7.642,5.264,11.443,7.928
			c4.172,3,8.634,5.586,12.33,9.125c8.379,7.686,16.384,15.666,22.356,25.57c3.371,5.6,7.131,10.986,10.71,16.445
			c2.074,3.217,4.013,6.535,6.22,9.412c2.312,2.941,6.181,1.914,7.525-2.008c1.442-3.801,3.024-7.549,4.135-11.395
			c1.021-3.705,1.647-7.496,2.113-11.27c0.392-4.684,0.69-9.498,0.66-14.197C1537.911,1405.025,1537.593,1397.771,1537.321,1390.674
			z"/>
	</g>
	<g>
		<path fill="#44749D" d="M1539.182,1353.256c-0.456-8.775-1.393-17.529-2.143-26.281c-0.043-0.467-0.608-0.871-0.675-1.338
			c-0.881-5.992-1.348-12.07-2.676-17.953c-1.164-5.121-0.151-10.363-2.826-15.602c-2.6-5.094-2.469-11.561-3.6-17.41
			c-1.253-6.545-2.242-13.156-3.947-19.584c-1.893-7.1-4.479-14.016-6.765-21.008c-1.858-5.686-3.642-11.404-5.61-17.061
			c-3.556-10.275-7.24-20.496-10.841-30.748c-1.176-3.326-1.903-6.854-3.403-10.004c-3.012-6.285-6.479-12.354-9.635-18.572
			c-2.402-4.73-4.349-9.699-6.947-14.32c-4.013-7.186-8.472-14.125-12.625-21.232c-3.455-5.918-6.5-12.105-10.175-17.879
			c-5.091-7.99-10.569-15.744-15.952-23.562c-4.242-6.166-8.523-12.307-12.887-18.396c-3.979-5.557-9.089-10.568-11.818-16.67
			c-2.729-6.086-1.599-12.73,1.445-19.375c2.545-5.557,2.514-12.287,3.708-18.475c0.968-4.979,0.62-9.994,2.97-15.006
			c2.369-5.076,2.892-11.178,3.435-16.908c0.687-7.254,1.774-14.352,3.022-21.539c2.306-13.256,2.609-26.881,3.576-40.354
			c0.545-7.631,0.741-15.285,1.143-22.922c0.044-0.824,0.392-1.643,0.619-2.457c1.644-5.84,3.621-11.492,0.772-17.734
			c-1.305-2.857-2.469-7.469-1.088-9.514c2.491-3.674,1.676-7.166,1.785-10.732c0.185-6.48-0.946-12.852-1.718-19.256
			c-1.428-11.961-1.024-24.031-3.286-36.09c-1.837-9.807-1.097-20.039-3.296-30.096c-1.674-7.665-1.324-15.745-3.248-23.671
			c-1.664-6.885-0.989-14.278-3.383-21.379c-1.631-4.87-1.238-10.23-3.219-15.438c-3.197-8.428-4.49-17.572-6.839-26.349
			c-1.979-7.459-4.35-14.81-6.47-22.225c-2.219-7.752-4.415-15.517-6.524-23.303c-2.423-8.938-4.554-17.962-7.186-26.834
			c-1.601-5.426-3.828-10.667-5.884-15.952c-3.043-7.764-6.101-15.527-9.317-23.225c-2.175-5.198-4.84-10.2-6.938-15.431
			c-2.805-6.99-4.957-14.266-7.99-21.148c-2.731-6.219-6.34-12.038-9.418-18.116c-1.654-3.251-2.771-6.785-4.489-10.002
			c-3.46-6.459-7.253-12.744-10.732-19.203c-2.86-5.285-5.253-10.841-8.23-16.061c-5.078-8.904-10.492-17.638-15.712-26.478
			c-1.946-3.305-3.609-6.785-5.59-10.08c-2.936-4.914-5.971-9.764-9.068-14.569c-4.861-7.536-9.71-15.071-14.732-22.498
			c-6.742-9.96-13.438-19.964-20.562-29.651c-4.328-5.905-9.593-11.113-14.104-16.887c-5.166-6.602-9.886-13.548-14.938-20.236
			c-2.502-3.306-5.48-6.263-7.971-9.579c-4.402-5.872-8.385-12.058-12.932-17.8c-5.609-7.101-11.48-13.994-17.462-20.768
			c-7.49-8.461-14.873-17.062-22.911-24.988c-14.418-14.233-29.184-28.119-44.023-41.917c-8.861-8.242-18.084-16.115-27.261-24.042
			c-6.428-5.557-12.961-11.004-19.595-16.332c-8.352-6.709-16.919-13.158-25.249-19.91c-6.351-5.153-12.274-10.862-18.724-15.885
			c-10.786-8.406-21.801-16.518-32.795-24.672c-4.795-3.556-9.688-6.991-14.655-10.309c-8.298-5.523-16.375-11.482-25.183-16.05
			c-3.111-1.608-8.744-0.891-11.974,0.957c-3.272,1.86,0.479,5.611,1.794,7.688c5.014,7.894,10.798,15.276,16.139,22.976
			c6.174,8.927,12.371,17.854,18.188,27.009c4.046,6.361,7.479,13.114,11.156,19.714c2.696,4.827,5.329,9.699,8.023,14.526
			c3.587,6.426,7.298,12.787,10.81,19.257c3.839,7.068,7.479,14.245,11.298,21.323c3.794,7.035,7.903,13.918,11.493,21.062
			c2.925,5.817,5.121,12.016,7.947,17.898c2.654,5.522,5.971,10.743,8.535,16.299c4.416,9.558,8.526,19.245,12.647,28.923
			c1.37,3.208,2.403,6.558,3.544,9.852c1.751,5.046,3.49,10.091,5.188,15.157c1.066,3.187,2.033,6.404,3.088,9.592
			c2.666,8.111,5.601,16.136,7.972,24.323c1.838,6.36,2.751,12.973,4.489,19.365c1.49,5.438,3.884,10.624,5.283,16.082
			c1.654,6.438,2.492,13.081,4.014,19.562c1.763,7.535,4.088,14.938,5.797,22.496c1.401,6.177,2.26,12.482,3.314,18.745
			c0.424,2.556-0.087,5.72,1.25,7.602c4.327,6.1,3.1,13.494,4.752,20.094c2.186,8.731,1.782,18.192,3.438,27.392
			c2.457,13.612,3.402,27.661,3.369,41.524c-0.021,13.604,0.35,27.162-1.369,40.939c-2.676,21.42,0.935,43.385-3.676,64.935
			c-1.914,8.95-2.328,18.214-3.403,27.337c-0.382,3.294-0.425,6.654-1.152,9.873c-1.61,7.229-3.687,14.363-5.329,21.595
			c-1.292,5.664-2.076,11.438-3.338,17.114c-2.054,9.274-4.281,18.506-6.501,27.749c-1.382,5.751-2.664,11.558-4.401,17.212
			c-1.903,6.188-4.635,12.125-6.354,18.355c-1.487,5.371-7.448,8.111-11.775,5.002c-3.24-2.338-6.729-4.359-10.22-6.328
			c-4.078-2.305-8.448-4.119-12.353-6.654c-6.264-4.057-12.156-8.656-18.375-12.775c-7.885-5.221-16.062-10.025-23.891-15.33
			c-6.066-4.112-11.667-8.907-17.699-13.072c-10.191-7.034-20.541-13.809-30.83-20.702c-8.295-5.565-16.711-10.949-24.834-16.756
			c-8.927-6.383-17.614-13.103-26.345-19.756c-6.579-5.015-12.962-10.287-19.628-15.191c-7.807-5.739-15.886-11.123-23.726-16.819
			c-8.841-6.429-17.582-12.994-26.324-19.562c-8.624-6.48-17.158-13.068-25.78-19.55c-8.742-6.567-17.539-13.06-26.304-19.583
			c-10.567-7.862-21.235-15.615-31.685-23.65c-6.448-4.947-12.636-10.254-18.845-15.538c-8.122-6.904-16.157-13.929-24.216-20.921
			c-3.021-2.631-5.904-5.447-9.058-7.916c-7.438-5.796-15.026-11.384-22.496-17.146c-5.329-4.101-10.581-8.319-15.821-12.538
			c-9.611-7.753-19.322-15.375-28.716-23.367c-8.569-7.263-16.812-14.918-25.118-22.476c-2.12-1.937-3.729-4.469-5.97-6.229
			c-4.817-3.806-10.155-6.98-14.776-10.994c-7.383-6.393-14.332-13.287-21.498-19.931c-4.099-3.816-8.133-7.742-12.451-11.308
			c-5.979-4.938-12.395-9.353-18.256-14.407c-6.937-5.992-13.461-12.451-20.19-18.67c-8.493-7.852-17.082-15.594-25.509-23.521
			c-9.396-8.818-18.659-17.789-27.967-26.705c-14.613-13.995-29.293-27.912-43.787-42.047c-7.209-7.023-13.843-14.646-21.084-21.639
			c-10.493-10.134-21.334-19.909-31.946-29.913c-4.088-3.851-7.828-8.068-11.982-11.854c-3.469-3.163-7.688-5.577-10.862-8.98
			c-3.1-3.326-5.23-7.524-7.928-11.243c-0.706-0.979-1.858-1.685-2.914-2.349c-0.185-0.12-1.369,0.739-1.314,0.979
			c0.304,1.49,0.674,3.012,1.348,4.371c0.805,1.621,3.109,4.013,2.74,4.48c-3.11,3.925,0.805,5.339,2.382,7.47
			c4.894,6.632,9.873,13.2,14.831,19.768c1.555,2.057,3.306,3.98,4.686,6.133c2.72,4.252,4.992,8.818,7.916,12.918
			c6.949,9.765,14.257,19.269,21.258,28.989c6.959,9.677,13.679,19.528,20.595,29.238c3.99,5.589,8.122,11.081,12.231,16.593
			c5.415,7.274,10.874,14.518,16.321,22.856c1.087,1.271,2.25,2.478,3.251,3.815c6.546,8.753,13.048,17.549,19.583,26.304
			c7.896,10.568,15.647,21.234,23.78,31.618c6.85,8.766,14.32,17.04,21.226,25.761c5.208,6.567,9.786,13.625,14.951,20.226
			c7.045,9.014,14.482,17.711,21.562,26.694c4.75,6.035,9.09,12.374,13.776,18.462c4.327,5.622,8.905,11.037,13.287,16.615
			c6.404,8.133,12.581,16.472,19.16,24.465c4.239,5.165,9.058,9.841,13.569,14.788c2.828,3.088,5.73,6.133,8.295,9.427
			c5.818,7.427,11.244,15.158,17.191,22.465c6.622,8.133,13.635,15.94,20.52,23.867c7.339,8.47,14.744,16.896,22.082,25.368
			c6.753,7.784,13.311,15.745,20.215,23.397c11.949,13.256,23.921,26.499,36.208,39.438c9.862,10.374,20.225,20.257,30.293,30.446
			c2.196,2.218,4.382,4.565,5.958,7.229c0.652,1.088,1.468,4.373-2.196,3.732c-1.805-0.317-3.675-0.827-5.252-1.719
			c-4.555-2.544-8.97-5.328-13.451-8.025c-8.188-4.946-16.505-9.688-24.53-14.885c-7.567-4.914-14.776-10.375-22.246-15.441
			c-6.145-4.175-12.527-8.014-18.648-12.232c-4.36-3.012-8.373-6.545-12.711-9.602c-5.98-4.229-12.167-8.165-18.18-12.352
			c-4.881-3.402-9.59-7.078-14.473-10.492c-6.003-4.197-12.168-8.156-18.137-12.396c-6.818-4.838-13.419-9.972-20.258-14.777
			c-8.395-5.913-17.016-11.534-25.41-17.462c-4.839-3.426-9.33-7.35-14.158-10.809c-6.209-4.447-12.602-8.633-18.898-12.949
			c-5.315-3.653-10.666-7.265-15.896-11.026c-6.579-4.72-13.104-9.515-19.562-14.407c-5.979-4.534-11.83-9.23-17.757-13.841
			c-8.283-6.438-16.581-12.863-24.898-19.258c-5.861-4.49-11.798-8.873-17.648-13.373c-8.198-6.285-16.331-12.658-24.52-18.965
			c-5.991-4.599-12.004-9.154-18.019-13.722c-8.121-6.176-16.363-12.2-24.354-18.549c-7.015-5.568-13.668-11.581-20.616-17.235
			c-10.482-8.535-21.148-16.843-31.587-25.422c-8.036-6.611-15.68-13.712-23.802-20.214c-10.069-8.057-20.616-15.527-30.663-23.628
			c-7.111-5.729-13.744-12.069-20.583-18.137c-2.85-2.533-5.644-5.121-8.546-7.588c-5.817-4.96-11.797-9.723-17.518-14.789
			c-3.882-3.447-7.307-7.427-11.167-10.906c-8.167-7.371-16.572-14.473-24.727-21.855c-8.34-7.558-16.44-15.375-24.802-22.889
			c-0.719-0.653-2.643,0.044-4.013,0.107c0.587,1.1,1.056,2.272,1.794,3.263c0.914,1.218,2.763,2.164,2.958,3.415
			c0.969,6.296,1.676,12.341,6.502,17.44c3.415,3.6,5.372,8.546,8.209,12.732c3.34,4.925,6.981,9.656,10.406,14.538
			c4.294,6.122,12.82,18.397,12.82,18.397s10.503,11.71,15.407,17.844c7.546,9.438,14.679,19.201,22.138,28.716
			c3.653,4.644,7.873,8.84,11.45,13.538c4.653,6.089,8.634,12.711,13.461,18.647c5.719,7.068,12.287,13.451,18.05,20.485
			c7.85,9.602,15.244,19.583,22.941,29.326c5.373,6.773,10.993,13.353,16.387,20.126c8.351,10.503,16.539,21.148,24.933,31.62
			c5.916,7.383,11.743,14.863,18.191,21.758c6.938,7.426,13.754,14.821,19.854,23.02c6.655,8.948,14.604,16.918,21.855,25.434
			c4.85,5.697,9.286,11.741,14.223,17.354c5.502,6.242,11.45,12.092,17.018,18.269c2.989,3.305,5.523,7.022,8.384,10.448
			c4.871,5.871,9.709,11.775,14.798,17.441c3.392,3.772,7.416,6.97,10.765,10.774c8.166,9.23,15.931,18.832,24.184,27.988
			c7.426,8.241,15.331,16.037,22.921,24.139c8.654,9.243,17.06,18.725,25.802,27.88c12.494,13.092,24.978,26.217,37.862,38.928
			c33.652,33.184,67.502,66.174,101.318,99.209c9.209,9.002,18.483,17.939,27.867,26.748c5.785,5.426,12.256,10.188,17.702,15.93
			c8.884,9.375,19.192,17.049,28.728,25.619c7.568,6.795,15.039,13.539,23.205,19.637c7.927,5.926,15.224,12.711,22.648,19.277
			c2.045,1.814,3.329,4.521,5.406,6.297c4.88,4.145,10.068,7.904,15.048,11.928c4.479,3.609,8.721,7.535,13.321,10.994
			c5.078,3.805,10.566,7.066,15.654,10.883c5.058,3.797,9.873,7.906,14.681,12.027c1.825,1.564,3.294,3.557,4.926,5.359
			c-1.739,1.205-3.457,2.445-5.22,3.621c-0.695,0.457-1.512,0.738-2.229,1.164c-8.229,4.936-16.147,10.516-24.735,14.689
			c-13.191,6.404-26.859,11.83-40.301,17.725c-8.839,3.881-17.505,8.207-26.509,11.666c-7.937,3.045-16.233,5.131-24.366,7.678
			c-5.742,1.793-11.416,3.869-17.225,5.414c-6.078,1.633-12.297,2.664-18.408,4.145c-7.361,1.793-14.603,4.141-22.029,5.598
			c-5.328,1.045-10.655,1.088-16.05,3.057c-6.643,2.426-14.103,2.914-21.278,3.469c-8.297,0.631-16.451,0.936-24.727,3.045
			c-9.699,2.48-20.018,2.848-30.097,3.502c-9.47,0.602-18.964,0.928-28.454,1.043c-0.857,0.049-1.718,0.078-2.583,0.078
			c-0.179,0-0.351-0.035-0.524-0.053c-1.289,0.008-2.578,0.029-3.865,0.029c-11.635,0-23.27-0.543-34.893-1.045
			c-14.017-0.596-28.098-0.803-42.016-2.391c-7.481-0.85-14.984-0.23-22.639-2.588c-9.297-2.871-19.627-2.209-29.392-3.828
			c-6.405-1.066-12.863-0.076-19.376-2.773c-6.47-2.674-14.135-2.426-21.236-3.631c-7.056-1.207-14.112-2.447-21.094-3.992
			c-7.764-1.729-15.43-3.859-23.148-5.764c-6.067-1.498-12.256-2.564-18.202-4.445c-8.112-2.566-16.018-5.764-24.052-8.592
			c-6.438-2.26-12.93-4.393-19.398-6.535c-7.764-2.564-15.518-5.129-23.312-7.576c-1.479-0.457-3.273,0.021-4.677-0.533
			c-7.61-2.99-15.114-6.242-22.704-9.266c-3.707-1.479-7.633-2.447-11.287-4.055c-5.621-2.457-11.004-5.48-16.656-7.895
			c-8.928-3.807-18.16-6.947-26.956-11.025c-7.525-3.48-14.593-7.918-21.91-11.842c-7.688-4.109-15.441-8.09-23.14-12.168
			c-6.665-3.523-13.31-7.09-19.941-10.688c-5.306-2.883-10.7-5.635-15.811-8.828c-7.752-4.852-15.212-10.17-22.965-15.039
			c-5.687-3.578-11.819-6.449-17.419-10.156c-7.089-4.686-13.732-10.059-20.768-14.852c-7.829-5.34-15.831-10.439-23.943-15.311
			c-0.608-0.371-4.588-10.561-4.665,0.51c0,0.578-1.521,1.543-2.414,1.645c-3.665,0.379-1.826,1.693-0.587,2.924
			c0.642,0.631,1.5,1.088,2,1.805c4.154,6.035,8.231,12.113,12.354,18.168c2.762,4.047,5.502,8.125,8.34,12.115
			c3.284,4.6,6.6,9.188,10.047,13.68c4.099,5.338,8.492,10.457,12.504,15.852c5.622,7.568,10.797,15.463,16.562,22.924
			c4.783,6.186,10.242,11.861,15.223,17.906c7.133,8.654,13.951,17.596,21.203,26.141c5.447,6.418,11.146,12.645,17.137,18.562
			c13.951,13.766,28.271,27.17,42.21,40.949c15.854,15.666,31.664,31.303,49.779,44.48c7.742,5.635,14.342,12.809,21.735,18.943
			c7.416,6.143,15.168,11.873,22.791,17.768c6.264,4.838,12.461,9.773,18.854,14.438c5.611,4.1,11.494,7.84,17.18,11.832
			c5.307,3.729,10.396,7.762,15.788,11.35c7.872,5.24,15.962,10.166,23.911,15.301c4.969,3.205,9.732,6.729,14.798,9.785
			c6.035,3.643,12.266,6.959,18.432,10.361c4.371,2.414,8.796,4.721,13.188,7.08c5.045,2.719,10.058,5.469,15.104,8.166
			c8.502,4.543,17.016,9.059,25.541,13.58c6.153,3.271,12.222,6.762,18.518,9.73c10.395,4.904,20.932,9.535,31.457,14.156
			c3.372,1.48,6.982,2.416,10.341,3.895c3.175,1.402,6.067,3.457,9.253,4.785c7.089,2.957,14.288,5.621,21.432,8.426
			c6.666,2.631,13.244,5.535,20.019,7.873c8.264,2.848,16.713,5.152,25.031,7.838c11.95,3.861,23.823,7.98,35.807,11.756
			c7.687,2.414,15.407,5.066,23.312,6.383c8.744,1.457,17.095,3.859,25.488,6.559c8.829,2.836,17.952,4.934,27.084,6.51
			c5.547,0.969,11.017,1.6,16.562,3.111c8.46,2.305,17.518,2.359,26.28,3.621c7.493,1.076,15.006,0.498,22.584,2.869
			c8.319,2.611,17.453,3.014,26.282,3.502c13.964,0.771,27.957,1.045,41.948,1.152c23.193,0.174,46.387,0.045,69.579,0.045
			c1.272,0,2.545,0.098,3.807-0.014c11.699-1.062,23.378-2.195,35.077-3.238c5.266-0.467,10.624-0.369,15.812-1.271
			c8.197-1.426,16.265-3.633,24.441-5.221c7.559-1.467,15.232-2.338,22.771-3.902c8.263-1.719,16.428-3.893,24.627-5.938
			c9.655-2.4,19.334-4.729,28.925-7.383c5.816-1.609,11.473-3.805,17.234-5.643c5.412-1.729,10.949-3.133,16.299-5.047
			c7.98-2.859,15.863-6.021,23.759-9.111c5.774-2.248,11.61-4.371,17.245-6.916c3.781-1.707,7.175-4.238,10.902-6.066
			c3.297-1.609,6.983-2.467,10.224-4.176c6.688-3.523,13.146-7.48,19.789-11.078c7.634-4.133,15.342-8.133,23.073-12.092
			c5.666-2.914,11.353-5.826,17.17-8.426c5.436-2.438,11.08-4.449,16.604-6.699c7.09-2.871,14.071-6.004,21.258-8.611
			c5.025-1.828,10.297-2.988,15.484-4.395c6.816-1.848,13.561-4.217,20.497-5.283c5.588-0.869,11.036-1.881,16.548-3.098
			c10.311-2.297,21.073-3.447,31.645-3.373c12.156,0.098,24.236-0.879,36.609,1.428c12.288,2.271,24.65,3.945,36.666,7.578
			c2.088,0.629,4.457,0.477,6.448,1.293c4.188,1.717,8.144,3.947,12.287,5.74c5.634,2.445,11.657,4.152,16.938,7.152
			c6.34,3.602,12.104,8.189,18.062,12.432c6.566,4.676,13.658,8.807,19.484,14.275c12.973,12.178,25.705,24.672,35.022,40.135
			c5.328,8.826,11.135,17.387,16.768,26.029c3.23,4.959,6.296,10.047,9.896,14.725c3.521,4.557,9.61,3.023,11.851-3.252
			c2.131-5.971,4.707-11.809,6.406-17.898c1.587-5.717,2.661-11.654,3.271-17.559c0.764-7.428,1.152-14.92,1.108-22.377
			C1540.184,1375.789,1539.771,1364.512,1539.182,1353.256z"/>
	</g>
</g>
<text transform="matrix(1.1884 0 0 1 1640.8145 1017.6738)" fill="#71A7D4" font-family="'MyriadPro-BoldCond'" font-size="835.9736">Swift Street</text>
</svg>
