<?xml version="1.0" encoding="utf-8"?>
<!-- Generator: Adobe Illustrator 16.0.0, SVG Export Plug-In . SVG Version: 6.00 Build 0)  -->
<!DOCTYPE svg PUBLIC "-//W3C//DTD SVG 1.1//EN" "http://www.w3.org/Graphics/SVG/1.1/DTD/svg11.dtd">
<svg version="1.1" id="Layer_1" xmlns="http://www.w3.org/2000/svg" xmlns:xlink="http://www.w3.org/1999/xlink" x="0px" y="0px"
	 width="5870.34px" height="1536px" viewBox="0 0 5870.34 1536" enable-background="new 0 0 5870.34 1536" xml:space="preserve">
<g>
	<path fill="#FFFFFF" d="M1539.182,1353.256c-0.456-8.775-1.393-17.529-2.143-26.281c-0.043-0.467-0.608-0.871-0.675-1.338
		c-0.881-5.992-1.349-12.069-2.677-17.953c-1.163-5.121-0.15-10.362-2.825-15.602c-2.601-5.094-2.47-11.562-3.601-17.41
		c-1.253-6.545-2.242-13.156-3.947-19.584c-1.893-7.1-4.479-14.016-6.765-21.008c-1.858-5.687-3.642-11.404-5.61-17.062
		c-3.556-10.274-7.239-20.496-10.841-30.748c-1.176-3.326-1.902-6.854-3.402-10.004c-3.013-6.285-6.479-12.354-9.636-18.572
		c-2.401-4.729-4.349-9.698-6.946-14.319c-4.013-7.187-8.473-14.125-12.625-21.232c-3.455-5.918-6.5-12.104-10.175-17.879
		c-5.092-7.99-10.569-15.744-15.952-23.562c-4.242-6.166-8.523-12.307-12.888-18.396c-3.979-5.557-9.089-10.568-11.817-16.67
		c-2.729-6.086-1.6-12.73,1.444-19.375c2.545-5.558,2.515-12.287,3.708-18.476c0.969-4.979,0.62-9.993,2.971-15.006
		c2.368-5.075,2.892-11.178,3.435-16.907c0.688-7.255,1.774-14.353,3.022-21.539c2.306-13.257,2.608-26.882,3.575-40.354
		c0.546-7.631,0.741-15.285,1.144-22.922c0.044-0.824,0.392-1.643,0.619-2.457c1.644-5.84,3.621-11.492,0.771-17.734
		c-1.305-2.856-2.469-7.469-1.088-9.514c2.491-3.674,1.676-7.166,1.785-10.731c0.185-6.48-0.946-12.853-1.718-19.257
		c-1.428-11.961-1.024-24.03-3.286-36.09c-1.837-9.807-1.097-20.039-3.296-30.096c-1.674-7.665-1.324-15.745-3.248-23.671
		c-1.664-6.885-0.989-14.278-3.383-21.379c-1.632-4.87-1.238-10.23-3.22-15.438c-3.196-8.428-4.489-17.572-6.839-26.349
		c-1.979-7.459-4.35-14.811-6.47-22.226c-2.219-7.752-4.415-15.517-6.524-23.303c-2.423-8.938-4.554-17.962-7.186-26.834
		c-1.602-5.426-3.828-10.667-5.885-15.952c-3.043-7.764-6.101-15.526-9.316-23.225c-2.175-5.198-4.84-10.2-6.938-15.431
		c-2.805-6.99-4.957-14.267-7.989-21.148c-2.731-6.219-6.34-12.038-9.418-18.116c-1.654-3.251-2.771-6.785-4.489-10.002
		c-3.46-6.459-7.253-12.744-10.732-19.203c-2.859-5.284-5.253-10.841-8.229-16.061c-5.078-8.904-10.492-17.638-15.712-26.479
		c-1.946-3.305-3.609-6.784-5.591-10.079c-2.936-4.914-5.971-9.765-9.067-14.569c-4.861-7.536-9.71-15.071-14.732-22.498
		c-6.741-9.96-13.438-19.964-20.562-29.651c-4.328-5.905-9.594-11.113-14.104-16.887c-5.166-6.602-9.886-13.548-14.938-20.236
		c-2.502-3.306-5.48-6.263-7.972-9.579c-4.401-5.872-8.385-12.058-12.932-17.8c-5.609-7.101-11.479-13.994-17.462-20.768
		c-7.49-8.461-14.873-17.062-22.911-24.988c-14.418-14.233-29.184-28.119-44.022-41.917c-8.861-8.242-18.084-16.115-27.262-24.042
		c-6.428-5.557-12.961-11.004-19.595-16.332c-8.352-6.709-16.919-13.158-25.249-19.91c-6.351-5.153-12.274-10.862-18.724-15.885
		c-10.786-8.406-21.801-16.518-32.795-24.672c-4.795-3.556-9.688-6.991-14.655-10.309c-8.298-5.523-16.375-11.482-25.183-16.05
		c-3.111-1.607-8.744-0.891-11.975,0.957c-3.271,1.86,0.479,5.611,1.794,7.688c5.015,7.894,10.798,15.276,16.14,22.976
		c6.174,8.927,12.371,17.854,18.188,27.009c4.046,6.361,7.479,13.114,11.156,19.714c2.695,4.827,5.329,9.699,8.022,14.526
		c3.587,6.426,7.298,12.787,10.811,19.257c3.839,7.068,7.479,14.245,11.298,21.323c3.794,7.035,7.903,13.918,11.493,21.062
		c2.925,5.817,5.121,12.016,7.947,17.898c2.653,5.522,5.971,10.743,8.534,16.299c4.416,9.558,8.526,19.245,12.647,28.923
		c1.37,3.208,2.403,6.558,3.544,9.852c1.751,5.046,3.49,10.091,5.188,15.157c1.066,3.187,2.033,6.404,3.089,9.592
		c2.666,8.111,5.601,16.136,7.972,24.323c1.838,6.36,2.751,12.973,4.489,19.365c1.489,5.438,3.884,10.624,5.282,16.082
		c1.654,6.438,2.492,13.081,4.015,19.562c1.763,7.535,4.088,14.938,5.797,22.496c1.401,6.177,2.26,12.481,3.313,18.745
		c0.425,2.556-0.087,5.72,1.25,7.602c4.327,6.1,3.101,13.494,4.752,20.094c2.187,8.731,1.782,18.192,3.438,27.393
		c2.457,13.611,3.402,27.661,3.369,41.523c-0.021,13.604,0.35,27.162-1.369,40.939c-2.676,21.42,0.935,43.385-3.676,64.935
		c-1.914,8.95-2.328,18.214-3.403,27.337c-0.382,3.294-0.425,6.654-1.152,9.873c-1.609,7.229-3.687,14.363-5.328,21.596
		c-1.292,5.664-2.076,11.438-3.338,17.113c-2.055,9.274-4.281,18.506-6.502,27.749c-1.382,5.751-2.663,11.559-4.4,17.212
		c-1.903,6.188-4.635,12.125-6.354,18.355c-1.486,5.371-7.447,8.111-11.774,5.002c-3.24-2.338-6.729-4.359-10.221-6.328
		c-4.077-2.305-8.447-4.119-12.353-6.654c-6.264-4.057-12.156-8.655-18.375-12.774c-7.885-5.222-16.062-10.025-23.891-15.33
		c-6.066-4.112-11.667-8.907-17.699-13.072c-10.191-7.034-20.541-13.809-30.83-20.702c-8.295-5.564-16.711-10.949-24.834-16.756
		c-8.927-6.383-17.614-13.103-26.345-19.756c-6.579-5.015-12.962-10.287-19.628-15.191c-7.808-5.738-15.887-11.123-23.727-16.818
		c-8.841-6.43-17.582-12.994-26.323-19.562c-8.625-6.479-17.158-13.067-25.78-19.55c-8.742-6.567-17.539-13.06-26.305-19.583
		c-10.566-7.862-21.234-15.615-31.685-23.65c-6.448-4.946-12.636-10.254-18.845-15.537c-8.122-6.904-16.157-13.93-24.216-20.922
		c-3.021-2.631-5.904-5.446-9.059-7.916c-7.438-5.796-15.025-11.384-22.496-17.146c-5.329-4.102-10.581-8.319-15.82-12.538
		c-9.611-7.753-19.322-15.375-28.717-23.367c-8.568-7.263-16.812-14.918-25.117-22.476c-2.12-1.938-3.729-4.47-5.971-6.229
		c-4.816-3.806-10.154-6.979-14.775-10.994c-7.383-6.393-14.332-13.287-21.498-19.931c-4.1-3.816-8.133-7.742-12.451-11.308
		c-5.979-4.938-12.396-9.354-18.256-14.407c-6.938-5.992-13.461-12.451-20.19-18.67c-8.493-7.852-17.082-15.594-25.509-23.521
		c-9.396-8.818-18.659-17.789-27.967-26.705c-14.613-13.995-29.293-27.912-43.787-42.047c-7.209-7.023-13.843-14.646-21.084-21.639
		c-10.493-10.134-21.334-19.909-31.946-29.913c-4.088-3.851-7.828-8.068-11.981-11.854c-3.47-3.163-7.688-5.577-10.862-8.98
		c-3.1-3.326-5.229-7.524-7.928-11.243c-0.706-0.979-1.858-1.685-2.914-2.349c-0.186-0.12-1.369,0.739-1.314,0.979
		c0.304,1.49,0.674,3.012,1.349,4.371c0.805,1.621,3.108,4.013,2.739,4.48c-3.109,3.925,0.806,5.339,2.382,7.47
		c4.895,6.632,9.873,13.2,14.831,19.768c1.556,2.057,3.307,3.98,4.687,6.133c2.72,4.252,4.992,8.818,7.916,12.918
		c6.949,9.765,14.257,19.269,21.258,28.989c6.959,9.677,13.679,19.528,20.595,29.238c3.99,5.589,8.122,11.081,12.231,16.593
		c5.415,7.274,10.874,14.519,16.321,22.856c1.087,1.271,2.25,2.478,3.251,3.815c6.546,8.753,13.048,17.549,19.583,26.304
		c7.896,10.568,15.646,21.234,23.779,31.618c6.851,8.767,14.32,17.041,21.227,25.762c5.208,6.566,9.786,13.625,14.951,20.226
		c7.045,9.015,14.481,17.711,21.562,26.694c4.75,6.035,9.09,12.374,13.776,18.462c4.327,5.622,8.905,11.037,13.286,16.615
		c6.404,8.133,12.582,16.472,19.16,24.465c4.239,5.165,9.059,9.841,13.569,14.788c2.828,3.088,5.729,6.133,8.295,9.427
		c5.818,7.427,11.244,15.158,17.191,22.465c6.622,8.134,13.635,15.94,20.52,23.867c7.339,8.47,14.744,16.896,22.082,25.368
		c6.753,7.784,13.312,15.745,20.215,23.396c11.949,13.257,23.921,26.499,36.208,39.438c9.862,10.374,20.226,20.257,30.293,30.446
		c2.196,2.218,4.383,4.564,5.958,7.229c0.652,1.088,1.469,4.373-2.195,3.732c-1.806-0.317-3.675-0.827-5.252-1.72
		c-4.556-2.544-8.971-5.327-13.451-8.024c-8.188-4.946-16.505-9.688-24.53-14.885c-7.566-4.914-14.775-10.375-22.246-15.441
		c-6.145-4.175-12.527-8.014-18.647-12.232c-4.36-3.012-8.373-6.545-12.712-9.602c-5.979-4.229-12.166-8.165-18.18-12.352
		c-4.881-3.402-9.59-7.078-14.473-10.492c-6.003-4.197-12.168-8.156-18.137-12.396c-6.818-4.838-13.42-9.972-20.259-14.776
		c-8.395-5.913-17.016-11.534-25.409-17.462c-4.84-3.427-9.33-7.351-14.158-10.81c-6.209-4.447-12.603-8.633-18.898-12.949
		c-5.314-3.652-10.666-7.265-15.896-11.025c-6.579-4.72-13.104-9.516-19.562-14.407c-5.979-4.534-11.83-9.23-17.757-13.841
		c-8.283-6.438-16.581-12.863-24.898-19.258c-5.86-4.49-11.798-8.873-17.647-13.373c-8.198-6.285-16.331-12.658-24.521-18.966
		c-5.99-4.599-12.004-9.153-18.019-13.722c-8.121-6.176-16.363-12.2-24.354-18.549c-7.015-5.568-13.668-11.581-20.615-17.235
		c-10.482-8.535-21.148-16.843-31.587-25.422c-8.036-6.61-15.681-13.712-23.802-20.214c-10.069-8.057-20.616-15.527-30.663-23.628
		c-7.111-5.729-13.744-12.069-20.583-18.137c-2.85-2.533-5.644-5.121-8.546-7.588c-5.817-4.96-11.797-9.723-17.518-14.789
		c-3.882-3.447-7.307-7.427-11.167-10.906c-8.167-7.371-16.572-14.473-24.727-21.855c-8.34-7.558-16.44-15.375-24.802-22.889
		c-0.719-0.653-2.643,0.044-4.013,0.107c0.587,1.1,1.056,2.272,1.794,3.263c0.914,1.218,2.763,2.164,2.958,3.415
		c0.969,6.296,1.676,12.341,6.502,17.44c3.415,3.6,5.372,8.546,8.209,12.732c3.34,4.925,6.981,9.656,10.406,14.538
		c4.294,6.122,12.82,18.397,12.82,18.397s10.503,11.71,15.407,17.844c7.546,9.438,14.679,19.201,22.138,28.716
		c3.653,4.644,7.873,8.84,11.45,13.538c4.653,6.089,8.634,12.711,13.461,18.646c5.719,7.068,12.287,13.451,18.05,20.485
		c7.85,9.602,15.244,19.583,22.941,29.326c5.373,6.772,10.993,13.353,16.387,20.126c8.352,10.503,16.539,21.147,24.934,31.62
		c5.916,7.383,11.743,14.862,18.19,21.758c6.938,7.426,13.754,14.821,19.854,23.02c6.655,8.948,14.604,16.919,21.854,25.435
		c4.851,5.697,9.286,11.741,14.224,17.354c5.502,6.242,11.45,12.093,17.018,18.27c2.989,3.305,5.523,7.021,8.384,10.448
		c4.871,5.87,9.709,11.774,14.799,17.44c3.392,3.772,7.416,6.97,10.765,10.774c8.166,9.229,15.931,18.832,24.184,27.987
		c7.427,8.241,15.331,16.037,22.921,24.14c8.654,9.243,17.061,18.725,25.803,27.88c12.494,13.092,24.978,26.217,37.861,38.928
		c33.652,33.184,67.502,66.174,101.318,99.209c9.209,9.002,18.483,17.939,27.867,26.748c5.785,5.426,12.256,10.188,17.702,15.93
		c8.884,9.375,19.191,17.049,28.728,25.619c7.568,6.795,15.039,13.539,23.205,19.637c7.928,5.927,15.225,12.712,22.648,19.277
		c2.045,1.814,3.329,4.521,5.406,6.297c4.88,4.146,10.067,7.904,15.048,11.928c4.479,3.609,8.721,7.535,13.32,10.994
		c5.078,3.806,10.566,7.066,15.654,10.884c5.058,3.797,9.873,7.905,14.681,12.026c1.825,1.564,3.295,3.558,4.927,5.359
		c-1.739,1.205-3.457,2.445-5.221,3.621c-0.694,0.457-1.512,0.738-2.229,1.164c-8.229,4.936-16.147,10.516-24.735,14.688
		c-13.19,6.404-26.858,11.83-40.301,17.726c-8.839,3.881-17.505,8.207-26.509,11.666c-7.938,3.045-16.233,5.131-24.366,7.678
		c-5.742,1.793-11.416,3.869-17.225,5.414c-6.078,1.633-12.297,2.664-18.408,4.145c-7.361,1.793-14.604,4.141-22.029,5.598
		c-5.328,1.046-10.655,1.089-16.05,3.058c-6.644,2.426-14.103,2.914-21.278,3.469c-8.297,0.631-16.451,0.937-24.727,3.045
		c-9.699,2.48-20.019,2.849-30.098,3.502c-9.47,0.603-18.964,0.929-28.453,1.043c-0.857,0.049-1.719,0.078-2.583,0.078
		c-0.18,0-0.352-0.035-0.524-0.053c-1.289,0.008-2.578,0.029-3.865,0.029c-11.635,0-23.27-0.543-34.893-1.046
		c-14.018-0.596-28.098-0.803-42.016-2.391c-7.481-0.85-14.984-0.229-22.64-2.588c-9.297-2.871-19.627-2.209-29.392-3.828
		c-6.405-1.066-12.863-0.076-19.376-2.772c-6.471-2.675-14.136-2.427-21.236-3.632c-7.056-1.207-14.112-2.446-21.094-3.991
		c-7.765-1.729-15.431-3.859-23.148-5.765c-6.066-1.498-12.256-2.563-18.202-4.444c-8.111-2.566-16.018-5.765-24.052-8.593
		c-6.438-2.26-12.93-4.393-19.398-6.534c-7.764-2.564-15.518-5.13-23.312-7.576c-1.479-0.457-3.273,0.021-4.677-0.533
		c-7.61-2.99-15.114-6.242-22.704-9.266c-3.707-1.479-7.633-2.447-11.287-4.056c-5.621-2.457-11.004-5.479-16.656-7.895
		c-8.928-3.808-18.16-6.947-26.956-11.025c-7.525-3.479-14.593-7.918-21.91-11.842c-7.688-4.109-15.441-8.09-23.14-12.168
		c-6.665-3.523-13.31-7.09-19.941-10.688c-5.306-2.883-10.7-5.635-15.811-8.827c-7.752-4.853-15.212-10.171-22.965-15.039
		c-5.687-3.578-11.819-6.449-17.419-10.156c-7.089-4.687-13.732-10.06-20.768-14.853c-7.829-5.34-15.831-10.438-23.943-15.311
		c-0.608-0.371-4.588-10.562-4.665,0.51c0,0.578-1.521,1.543-2.414,1.646c-3.665,0.379-1.826,1.692-0.587,2.924
		c0.642,0.631,1.5,1.088,2,1.805c4.154,6.035,8.231,12.113,12.354,18.168c2.762,4.047,5.502,8.125,8.34,12.115
		c3.284,4.6,6.6,9.188,10.047,13.68c4.099,5.338,8.492,10.457,12.504,15.853c5.622,7.567,10.797,15.463,16.562,22.924
		c4.783,6.186,10.242,11.86,15.223,17.906c7.133,8.653,13.951,17.596,21.203,26.141c5.447,6.418,11.146,12.646,17.137,18.562
		c13.951,13.767,28.271,27.171,42.21,40.949c15.854,15.666,31.664,31.303,49.779,44.48c7.742,5.635,14.342,12.809,21.735,18.942
		c7.416,6.144,15.168,11.873,22.791,17.769c6.264,4.838,12.461,9.772,18.854,14.438c5.611,4.101,11.494,7.84,17.18,11.832
		c5.307,3.729,10.396,7.762,15.788,11.351c7.872,5.239,15.962,10.166,23.911,15.301c4.969,3.205,9.731,6.729,14.798,9.785
		c6.035,3.643,12.266,6.959,18.432,10.36c4.371,2.414,8.796,4.722,13.188,7.08c5.045,2.719,10.058,5.469,15.104,8.166
		c8.502,4.543,17.017,9.06,25.541,13.58c6.153,3.271,12.223,6.762,18.519,9.73c10.395,4.903,20.932,9.535,31.457,14.155
		c3.372,1.48,6.981,2.416,10.341,3.896c3.175,1.402,6.066,3.457,9.253,4.785c7.089,2.957,14.288,5.621,21.432,8.426
		c6.666,2.631,13.244,5.535,20.02,7.873c8.264,2.848,16.713,5.152,25.03,7.838c11.95,3.861,23.823,7.98,35.808,11.756
		c7.687,2.414,15.407,5.066,23.312,6.383c8.744,1.457,17.096,3.859,25.488,6.56c8.829,2.836,17.952,4.934,27.084,6.51
		c5.547,0.969,11.017,1.601,16.562,3.111c8.459,2.305,17.518,2.358,26.279,3.621c7.493,1.075,15.006,0.498,22.584,2.868
		c8.319,2.611,17.453,3.015,26.282,3.502c13.964,0.771,27.957,1.046,41.948,1.152c23.192,0.174,46.387,0.045,69.578,0.045
		c1.272,0,2.546,0.099,3.808-0.014c11.699-1.062,23.378-2.195,35.077-3.238c5.266-0.467,10.624-0.369,15.812-1.271
		c8.197-1.427,16.266-3.634,24.441-5.222c7.559-1.467,15.231-2.338,22.771-3.901c8.264-1.72,16.429-3.894,24.627-5.938
		c9.655-2.399,19.334-4.729,28.926-7.383c5.815-1.609,11.473-3.805,17.233-5.643c5.412-1.729,10.949-3.134,16.299-5.047
		c7.98-2.859,15.863-6.021,23.76-9.111c5.773-2.248,11.609-4.371,17.245-6.916c3.78-1.707,7.175-4.238,10.901-6.066
		c3.297-1.608,6.983-2.467,10.224-4.176c6.688-3.523,13.146-7.48,19.789-11.078c7.635-4.133,15.343-8.133,23.073-12.092
		c5.666-2.914,11.354-5.826,17.17-8.426c5.437-2.438,11.08-4.449,16.604-6.699c7.09-2.871,14.07-6.004,21.258-8.611
		c5.025-1.828,10.297-2.988,15.484-4.395c6.815-1.849,13.561-4.217,20.496-5.283c5.589-0.869,11.036-1.881,16.549-3.098
		c10.311-2.297,21.072-3.447,31.645-3.373c12.156,0.098,24.236-0.879,36.609,1.428c12.288,2.271,24.649,3.945,36.666,7.578
		c2.088,0.629,4.457,0.477,6.447,1.293c4.188,1.717,8.145,3.947,12.287,5.74c5.635,2.444,11.657,4.151,16.938,7.151
		c6.34,3.603,12.104,8.189,18.062,12.433c6.566,4.676,13.658,8.807,19.484,14.274c12.973,12.178,25.705,24.672,35.021,40.135
		c5.328,8.826,11.136,17.388,16.769,26.029c3.229,4.959,6.296,10.047,9.896,14.726c3.521,4.557,9.61,3.022,11.852-3.252
		c2.131-5.972,4.707-11.81,6.406-17.898c1.587-5.717,2.66-11.654,3.271-17.559c0.764-7.429,1.152-14.92,1.108-22.377
		C1540.184,1375.789,1539.771,1364.512,1539.182,1353.256z"/>
</g>
<text transform="matrix(1.1884 0 0 1 1773.8149 1327.6162)" fill="#FFFFFF" font-family="'MyriadPro-BoldCond'" font-size="835.9736">Swift Street</text>
</svg>
